<mxfile host="app.diagrams.net" modified="2023-01-23T17:12:44.971Z" agent="5.0 (Windows NT 10.0; Win64; x64) AppleWebKit/537.36 (KHTML, like Gecko) Chrome/109.0.0.0 Safari/537.36" etag="FOjbuAmo7wnN17eEenhW" version="20.8.10" type="github">
  <diagram name="Page-1" id="c7558073-3199-34d8-9f00-42111426c3f3">
    <mxGraphModel dx="3216" dy="3598" grid="1" gridSize="10" guides="1" tooltips="1" connect="1" arrows="1" fold="1" page="1" pageScale="1" pageWidth="826" pageHeight="1169" background="none" math="0" shadow="0">
      <root>
        <mxCell id="0" />
        <mxCell id="1" parent="0" />
        <mxCell id="im6uKeQKjoMlU5U68ikK-104" value="&lt;b&gt;Information:&amp;nbsp;&lt;/b&gt;&lt;br&gt;&lt;br&gt;&lt;b&gt;Trigger:&lt;/b&gt;&lt;br&gt;&lt;br&gt;&lt;br&gt;&lt;b&gt;Task:&lt;/b&gt;&lt;br&gt;&lt;br&gt;&lt;br&gt;&lt;b&gt;Test/Check:&lt;/b&gt;&lt;br&gt;&lt;br&gt;&lt;br&gt;&lt;div style=&quot;&quot;&gt;&lt;span style=&quot;background-color: initial;&quot;&gt;&lt;b&gt;Training:&lt;/b&gt;&lt;/span&gt;&lt;/div&gt;&lt;div style=&quot;&quot;&gt;&lt;span style=&quot;background-color: initial;&quot;&gt;&lt;b&gt;&lt;br&gt;&lt;/b&gt;&lt;/span&gt;&lt;/div&gt;&lt;div style=&quot;&quot;&gt;&lt;span style=&quot;background-color: initial;&quot;&gt;&lt;b&gt;&lt;br&gt;&lt;/b&gt;&lt;/span&gt;&lt;/div&gt;&lt;div style=&quot;&quot;&gt;&lt;span style=&quot;background-color: initial;&quot;&gt;&lt;b&gt;Notes:&lt;/b&gt;&lt;/span&gt;&lt;/div&gt;&lt;div style=&quot;&quot;&gt;&lt;span style=&quot;background-color: initial;&quot;&gt;&lt;b&gt;&lt;br&gt;&lt;/b&gt;&lt;/span&gt;&lt;/div&gt;&lt;div style=&quot;&quot;&gt;&lt;span style=&quot;background-color: initial;&quot;&gt;&lt;b&gt;&lt;br&gt;&lt;/b&gt;&lt;/span&gt;&lt;/div&gt;&lt;div style=&quot;&quot;&gt;&lt;span style=&quot;background-color: initial;&quot;&gt;&lt;b&gt;&lt;br&gt;&lt;/b&gt;&lt;/span&gt;&lt;/div&gt;" style="rounded=0;whiteSpace=wrap;html=1;align=left;fillColor=#dae8fc;strokeColor=#6c8ebf;strokeWidth=3;" vertex="1" parent="1">
          <mxGeometry x="-130" y="-940" width="390" height="280" as="geometry" />
        </mxCell>
        <mxCell id="2" value="&lt;p style=&quot;margin: 0px; margin-top: 4px; text-align: center; text-decoration: underline;&quot;&gt;&lt;strong&gt;Process 1&lt;br /&gt;&lt;/strong&gt;&lt;/p&gt;&lt;hr /&gt;&lt;p style=&quot;margin: 0px; margin-left: 8px;&quot;&gt;System Study&lt;/p&gt;&lt;p style=&quot;margin: 0px; margin-left: 8px;&quot;&gt;Preparation&lt;/p&gt;" style="verticalAlign=middle;align=center;overflow=fill;fontSize=12;fontFamily=Helvetica;html=1;rounded=1;fontStyle=1;strokeWidth=3;fillColor=#E6FFCC" parent="1" vertex="1">
          <mxGeometry x="-429" y="-2054" width="110" height="90" as="geometry" />
        </mxCell>
        <mxCell id="3" value="Engineering" style="whiteSpace=wrap;align=center;verticalAlign=middle;fontStyle=1;strokeWidth=3;fillColor=#FFFFCC" parent="1" vertex="1">
          <mxGeometry x="-419" y="-2164" width="90" height="60" as="geometry" />
        </mxCell>
        <mxCell id="4" value="Investors" style="whiteSpace=wrap;align=center;verticalAlign=middle;fontStyle=1;strokeWidth=3;fillColor=#FFFFCC" parent="1" vertex="1">
          <mxGeometry x="-735" y="-2251" width="90" height="60" as="geometry" />
        </mxCell>
        <mxCell id="5" value="VPP LOGIN" style="shape=process;whiteSpace=wrap;align=center;verticalAlign=middle;size=0.0475;fontStyle=1;strokeWidth=3;fillColor=#FFCCCC" parent="1" vertex="1">
          <mxGeometry x="-444" y="-2280" width="129" height="40" as="geometry" />
        </mxCell>
        <mxCell id="6" value="&lt;p style=&quot;margin: 0px; margin-top: 4px; text-align: center; text-decoration: underline;&quot;&gt;&lt;strong&gt;Process 2&lt;br /&gt;&lt;/strong&gt;&lt;/p&gt;&lt;hr /&gt;&lt;p style=&quot;margin: 0px; margin-left: 8px;&quot;&gt;System Analysis&lt;/p&gt;" style="verticalAlign=middle;align=center;overflow=fill;fontSize=12;fontFamily=Helvetica;html=1;rounded=1;fontStyle=1;strokeWidth=3;fillColor=#E6FFCC" parent="1" vertex="1">
          <mxGeometry x="-275" y="-2144" width="110" height="90" as="geometry" />
        </mxCell>
        <mxCell id="7" value="&lt;p style=&quot;margin: 0px; margin-top: 4px; text-align: center; text-decoration: underline;&quot;&gt;&lt;strong&gt;&lt;strong&gt;Process&lt;/strong&gt; 3&lt;br /&gt;&lt;/strong&gt;&lt;/p&gt;&lt;hr /&gt;&lt;p style=&quot;margin: 0px; margin-left: 8px;&quot;&gt;List Possible&lt;/p&gt;&lt;p style=&quot;margin: 0px; margin-left: 8px;&quot;&gt;System Solutions&lt;/p&gt;" style="verticalAlign=middle;align=center;overflow=fill;fontSize=12;fontFamily=Helvetica;html=1;rounded=1;fontStyle=1;strokeWidth=3;fillColor=#E6FFCC" parent="1" vertex="1">
          <mxGeometry x="16" y="-1919" width="110" height="90" as="geometry" />
        </mxCell>
        <mxCell id="8" value="&lt;p style=&quot;margin: 0px; margin-top: 4px; text-align: center; text-decoration: underline;&quot;&gt;&lt;strong&gt;&lt;strong&gt;Process&lt;/strong&gt; 4&lt;br /&gt;&lt;/strong&gt;&lt;/p&gt;&lt;hr /&gt;&lt;p style=&quot;margin: 0px; margin-left: 8px;&quot;&gt;Detail Chosen&lt;/p&gt;&lt;p style=&quot;margin: 0px; margin-left: 8px;&quot;&gt;Solution&lt;/p&gt;" style="verticalAlign=middle;align=center;overflow=fill;fontSize=12;fontFamily=Helvetica;html=1;rounded=1;fontStyle=1;strokeWidth=3;fillColor=#E6FFCC" parent="1" vertex="1">
          <mxGeometry x="-105" y="-2049" width="110" height="90" as="geometry" />
        </mxCell>
        <mxCell id="9" value="&lt;p style=&quot;margin: 0px; margin-top: 4px; text-align: center; text-decoration: underline;&quot;&gt;&lt;strong&gt;&lt;strong&gt;Process&lt;/strong&gt; 5&lt;br /&gt;&lt;/strong&gt;&lt;/p&gt;&lt;hr /&gt;&lt;p style=&quot;margin: 0px; margin-left: 8px;&quot;&gt;New System&lt;/p&gt;&lt;p style=&quot;margin: 0px; margin-left: 8px;&quot;&gt;Design&lt;/p&gt;" style="verticalAlign=middle;align=center;overflow=fill;fontSize=12;fontFamily=Helvetica;html=1;rounded=1;fontStyle=1;strokeWidth=3;fillColor=#E6FFCC" parent="1" vertex="1">
          <mxGeometry x="-125" y="-1780" width="110" height="90" as="geometry" />
        </mxCell>
        <mxCell id="10" value="&lt;p style=&quot;margin: 0px; margin-top: 4px; text-align: center; text-decoration: underline;&quot;&gt;&lt;strong&gt;&lt;strong&gt;Process&lt;/strong&gt; 6&lt;br /&gt;&lt;/strong&gt;&lt;/p&gt;&lt;hr /&gt;&lt;p style=&quot;margin: 0px; margin-left: 8px;&quot;&gt;New&lt;/p&gt;&lt;p style=&quot;margin: 0px; margin-left: 8px;&quot;&gt;System&lt;/p&gt;&lt;p style=&quot;margin: 0px; margin-left: 8px;&quot;&gt;Construction&lt;/p&gt;" style="verticalAlign=middle;align=center;overflow=fill;fontSize=12;fontFamily=Helvetica;html=1;rounded=1;fontStyle=1;strokeWidth=3;fillColor=#E6FFCC" parent="1" vertex="1">
          <mxGeometry x="-476.5" y="-1780" width="110" height="90" as="geometry" />
        </mxCell>
        <mxCell id="12" value="Management" style="whiteSpace=wrap;align=center;verticalAlign=middle;fontStyle=1;strokeWidth=3;fillColor=#FFFFCC" parent="1" vertex="1">
          <mxGeometry x="26" y="-2230" width="90" height="60" as="geometry" />
        </mxCell>
        <mxCell id="13" value="Management" style="whiteSpace=wrap;align=center;verticalAlign=middle;fontStyle=1;strokeWidth=3;fillColor=#FFFFCC" parent="1" vertex="1">
          <mxGeometry x="-311.5" y="-1640" width="90" height="60" as="geometry" />
        </mxCell>
        <mxCell id="14" value="Engineering" style="whiteSpace=wrap;align=center;verticalAlign=middle;fontStyle=1;strokeWidth=3;fillColor=#FFFFCC" parent="1" vertex="1">
          <mxGeometry x="-740" y="-1977" width="90" height="60" as="geometry" />
        </mxCell>
        <mxCell id="15" value="Vendors" style="whiteSpace=wrap;align=center;verticalAlign=middle;fontStyle=1;strokeWidth=3;fillColor=#FFFFCC" parent="1" vertex="1">
          <mxGeometry x="-115" y="-1640" width="90" height="60" as="geometry" />
        </mxCell>
        <mxCell id="36" value="" style="edgeStyle=none;noEdgeStyle=1;strokeColor=#990000;strokeWidth=2" parent="1" source="3" target="2" edge="1">
          <mxGeometry width="100" height="100" relative="1" as="geometry">
            <mxPoint x="-645" y="-2040" as="sourcePoint" />
            <mxPoint x="-545" y="-2140" as="targetPoint" />
          </mxGeometry>
        </mxCell>
        <mxCell id="37" value="" style="edgeStyle=none;noEdgeStyle=1;strokeColor=#990000;strokeWidth=2" parent="1" target="2" edge="1">
          <mxGeometry width="100" height="100" relative="1" as="geometry">
            <mxPoint x="-535" y="-2009" as="sourcePoint" />
            <mxPoint x="-285" y="-2200" as="targetPoint" />
          </mxGeometry>
        </mxCell>
        <mxCell id="11" value="&lt;p style=&quot;margin: 0px; margin-top: 4px; text-align: center; text-decoration: underline;&quot;&gt;&lt;strong&gt;&lt;strong&gt;Process&lt;/strong&gt; 7&lt;br /&gt;&lt;/strong&gt;&lt;/p&gt;&lt;hr /&gt;&lt;p style=&quot;margin: 0px; margin-left: 8px;&quot;&gt;New System&lt;/p&gt;&lt;p style=&quot;margin: 0px; margin-left: 8px;&quot;&gt;Startup and&lt;/p&gt;&lt;p style=&quot;margin: 0px; margin-left: 8px;&quot;&gt;Testing&lt;/p&gt;" style="verticalAlign=middle;align=center;overflow=fill;fontSize=12;fontFamily=Helvetica;html=1;rounded=1;fontStyle=1;strokeWidth=3;fillColor=#E6FFCC" parent="1" vertex="1">
          <mxGeometry x="-321.5" y="-1780" width="110" height="90" as="geometry" />
        </mxCell>
        <mxCell id="51" value="" style="endArrow=none;noEdgeStyle=1;strokeColor=#990000;strokeWidth=2" parent="1" source="9" target="11" edge="1">
          <mxGeometry relative="1" as="geometry">
            <mxPoint x="-459.9918032786886" y="-1809" as="sourcePoint" />
            <mxPoint x="-264.6721311475412" y="-1640" as="targetPoint" />
          </mxGeometry>
        </mxCell>
        <mxCell id="52" value="Desired &#xa;functionality" style="text;spacingTop=-5;align=center" parent="1" vertex="1">
          <mxGeometry x="-500" y="-2039" width="30" height="20" as="geometry" />
        </mxCell>
        <mxCell id="53" value="Desired &#xa;functionality" style="text;spacingTop=-5;align=center" parent="1" vertex="1">
          <mxGeometry x="-424" y="-2094" width="30" height="20" as="geometry" />
        </mxCell>
        <mxCell id="54" value="Documentation&#xa;from similar projects" style="text;spacingTop=-5;align=center" parent="1" vertex="1">
          <mxGeometry x="-479" y="-1949" width="30" height="20" as="geometry" />
        </mxCell>
        <mxCell id="55" value="" style="edgeStyle=elbowEdgeStyle;elbow=horizontal;strokeColor=#990000;strokeWidth=2" parent="1" source="5" target="2" edge="1">
          <mxGeometry width="100" height="100" relative="1" as="geometry">
            <mxPoint x="-615" y="-1760" as="sourcePoint" />
            <mxPoint x="-515" y="-1860" as="targetPoint" />
            <Array as="points">
              <mxPoint x="-405" y="-1920" />
            </Array>
          </mxGeometry>
        </mxCell>
        <mxCell id="56" value="" style="edgeStyle=elbowEdgeStyle;elbow=horizontal;strokeColor=#990000;strokeWidth=2" parent="1" source="2" target="5" edge="1">
          <mxGeometry width="100" height="100" relative="1" as="geometry">
            <mxPoint x="-615" y="-1790" as="sourcePoint" />
            <mxPoint x="-515" y="-1890" as="targetPoint" />
            <Array as="points">
              <mxPoint x="-385" y="-1930" />
            </Array>
          </mxGeometry>
        </mxCell>
        <mxCell id="57" value="Elaborate&#xa;cost/benefit&#xa;ratio" style="text;spacingTop=-5;align=center" parent="1" vertex="1">
          <mxGeometry x="-359" y="-1949" width="30" height="20" as="geometry" />
        </mxCell>
        <mxCell id="58" value="" style="edgeStyle=elbowEdgeStyle;elbow=horizontal;strokeColor=#990000;strokeWidth=2" parent="1" source="5" target="6" edge="1">
          <mxGeometry width="100" height="100" relative="1" as="geometry">
            <mxPoint x="-285" y="-1920" as="sourcePoint" />
            <mxPoint x="-185" y="-2020" as="targetPoint" />
            <Array as="points">
              <mxPoint x="-225" y="-1980" />
            </Array>
          </mxGeometry>
        </mxCell>
        <mxCell id="59" value="" style="edgeStyle=elbowEdgeStyle;elbow=horizontal;strokeColor=#990000;strokeWidth=2" parent="1" source="6" target="5" edge="1">
          <mxGeometry width="100" height="100" relative="1" as="geometry">
            <mxPoint x="-315" y="-1920" as="sourcePoint" />
            <mxPoint x="-215" y="-2020" as="targetPoint" />
            <Array as="points">
              <mxPoint x="-205" y="-1970" />
            </Array>
          </mxGeometry>
        </mxCell>
        <mxCell id="60" value="Existing&#xa;documentation" style="text;spacingTop=-5;align=center" parent="1" vertex="1">
          <mxGeometry x="-285" y="-2009.0000000000002" width="30" height="20" as="geometry" />
        </mxCell>
        <mxCell id="61" value="Necessary&#xa;resources" style="text;spacingTop=-5;align=center" parent="1" vertex="1">
          <mxGeometry x="-184" y="-2039" width="30" height="20" as="geometry" />
        </mxCell>
        <mxCell id="62" value="Progress&#xa;reports" style="text;spacingTop=-5;align=center" parent="1" vertex="1">
          <mxGeometry x="-120" y="-2190" width="30" height="20" as="geometry" />
        </mxCell>
        <mxCell id="63" value="Progress&#xa;reports" style="text;spacingTop=-5;align=center" parent="1" vertex="1">
          <mxGeometry x="-25" y="-2144" width="30" height="20" as="geometry" />
        </mxCell>
        <mxCell id="64" value="Progress&#xa;reports" style="text;spacingTop=-5;align=center" parent="1" vertex="1">
          <mxGeometry x="86" y="-2029" width="30" height="20" as="geometry" />
        </mxCell>
        <mxCell id="65" value="" style="edgeStyle=elbowEdgeStyle;elbow=horizontal;strokeColor=#990000;strokeWidth=2" parent="1" source="6" target="12" edge="1">
          <mxGeometry width="100" height="100" relative="1" as="geometry">
            <mxPoint x="-405" y="-2110" as="sourcePoint" />
            <mxPoint x="-305" y="-2210" as="targetPoint" />
            <Array as="points">
              <mxPoint x="-220" y="-2150" />
            </Array>
          </mxGeometry>
        </mxCell>
        <mxCell id="66" value="" style="edgeStyle=elbowEdgeStyle;elbow=vertical;entryX=0.25;entryY=1;strokeColor=#990000;strokeWidth=2" parent="1" source="8" target="12" edge="1">
          <mxGeometry width="100" height="100" relative="1" as="geometry">
            <mxPoint x="-135" y="-2040" as="sourcePoint" />
            <mxPoint x="-35" y="-2140" as="targetPoint" />
          </mxGeometry>
        </mxCell>
        <mxCell id="67" value="" style="edgeStyle=elbowEdgeStyle;elbow=horizontal;strokeColor=#990000;strokeWidth=2" parent="1" source="7" target="12" edge="1">
          <mxGeometry width="100" height="100" relative="1" as="geometry">
            <mxPoint x="-5" y="-1930" as="sourcePoint" />
            <mxPoint x="95" y="-2030" as="targetPoint" />
          </mxGeometry>
        </mxCell>
        <mxCell id="68" value="" style="edgeStyle=elbowEdgeStyle;elbow=horizontal;strokeColor=#990000;strokeWidth=2" parent="1" source="8" target="5" edge="1">
          <mxGeometry width="100" height="100" relative="1" as="geometry">
            <mxPoint x="-95" y="-1910" as="sourcePoint" />
            <mxPoint x="-155" y="-2040" as="targetPoint" />
            <Array as="points">
              <mxPoint x="-95" y="-1930" />
            </Array>
          </mxGeometry>
        </mxCell>
        <mxCell id="69" value="" style="edgeStyle=segmentEdgeStyle;strokeColor=#990000;strokeWidth=2" parent="1" source="5" target="8" edge="1">
          <mxGeometry width="100" height="100" relative="1" as="geometry">
            <mxPoint x="-325" y="-1930" as="sourcePoint" />
            <mxPoint x="-225" y="-2030" as="targetPoint" />
            <Array as="points">
              <mxPoint x="-145" y="-2004" />
            </Array>
          </mxGeometry>
        </mxCell>
        <mxCell id="70" value="Existing&#xa;Models" style="text;spacingTop=-5;align=center" parent="1" vertex="1">
          <mxGeometry x="-135" y="-1949" width="30" height="20" as="geometry" />
        </mxCell>
        <mxCell id="71" value="Equipment&#xa;specification" style="text;spacingTop=-5;align=center" parent="1" vertex="1">
          <mxGeometry x="-50" y="-1949" width="30" height="20" as="geometry" />
        </mxCell>
        <mxCell id="72" value="" style="edgeStyle=elbowEdgeStyle;elbow=vertical;strokeColor=#990000;strokeWidth=2" parent="1" source="5" target="7" edge="1">
          <mxGeometry width="100" height="100" relative="1" as="geometry">
            <mxPoint x="-165" y="-1790" as="sourcePoint" />
            <mxPoint x="-65" y="-1890" as="targetPoint" />
            <Array as="points">
              <mxPoint x="-15" y="-1880" />
            </Array>
          </mxGeometry>
        </mxCell>
        <mxCell id="73" value="" style="edgeStyle=elbowEdgeStyle;elbow=vertical;strokeColor=#990000;strokeWidth=2" parent="1" source="7" target="5" edge="1">
          <mxGeometry width="100" height="100" relative="1" as="geometry">
            <mxPoint x="-205" y="-1790" as="sourcePoint" />
            <mxPoint x="-105" y="-1890" as="targetPoint" />
            <Array as="points">
              <mxPoint x="-15" y="-1860" />
            </Array>
          </mxGeometry>
        </mxCell>
        <mxCell id="74" value="Resources" style="text;spacingTop=-5;align=center" parent="1" vertex="1">
          <mxGeometry x="-44" y="-1899" width="30" height="20" as="geometry" />
        </mxCell>
        <mxCell id="75" value="System &#xa;Advantages &#xa;and Limitations" style="text;spacingTop=-5;align=center" parent="1" vertex="1">
          <mxGeometry x="-35" y="-1859" width="30" height="20" as="geometry" />
        </mxCell>
        <mxCell id="76" value="" style="edgeStyle=elbowEdgeStyle;elbow=horizontal;strokeColor=#990000;strokeWidth=2" parent="1" source="9" target="5" edge="1">
          <mxGeometry width="100" height="100" relative="1" as="geometry">
            <mxPoint x="-245" y="-1710" as="sourcePoint" />
            <mxPoint x="-145" y="-1810" as="targetPoint" />
            <Array as="points">
              <mxPoint x="-95" y="-1820" />
            </Array>
          </mxGeometry>
        </mxCell>
        <mxCell id="77" value="" style="edgeStyle=elbowEdgeStyle;elbow=horizontal;strokeColor=#990000;strokeWidth=2" parent="1" source="5" target="9" edge="1">
          <mxGeometry width="100" height="100" relative="1" as="geometry">
            <mxPoint x="-265" y="-1700" as="sourcePoint" />
            <mxPoint x="-165" y="-1800" as="targetPoint" />
            <Array as="points">
              <mxPoint x="-105" y="-1810" />
            </Array>
          </mxGeometry>
        </mxCell>
        <mxCell id="78" value="" style="edgeStyle=elbowEdgeStyle;elbow=horizontal;strokeColor=#990000;strokeWidth=2" parent="1" source="15" target="9" edge="1">
          <mxGeometry width="100" height="100" relative="1" as="geometry">
            <mxPoint x="-235" y="-1590" as="sourcePoint" />
            <mxPoint x="-135" y="-1690" as="targetPoint" />
          </mxGeometry>
        </mxCell>
        <mxCell id="79" value="Hardware and&#xa;Software specs" style="text;spacingTop=-5;align=center" parent="1" vertex="1">
          <mxGeometry x="-40" y="-1680" width="30" height="20" as="geometry" />
        </mxCell>
        <mxCell id="81" value="" style="edgeStyle=elbowEdgeStyle;elbow=horizontal;exitX=0;exitY=0.75;strokeColor=#990000;strokeWidth=2" parent="1" source="9" target="13" edge="1">
          <mxGeometry width="100" height="100" relative="1" as="geometry">
            <mxPoint x="-245" y="-1560" as="sourcePoint" />
            <mxPoint x="-145" y="-1660" as="targetPoint" />
            <Array as="points">
              <mxPoint x="-195" y="-1660" />
            </Array>
          </mxGeometry>
        </mxCell>
        <mxCell id="82" value="Progress&#xa;Reports" style="text;spacingTop=-5;align=center" parent="1" vertex="1">
          <mxGeometry x="-183.99999999999955" y="-1680" width="30" height="20" as="geometry" />
        </mxCell>
        <mxCell id="83" value="" style="edgeStyle=elbowEdgeStyle;elbow=horizontal;strokeColor=#990000;strokeWidth=2" parent="1" source="11" target="13" edge="1">
          <mxGeometry width="100" height="100" relative="1" as="geometry">
            <mxPoint x="-465" y="-1629.9999999999998" as="sourcePoint" />
            <mxPoint x="-435" y="-1640" as="targetPoint" />
          </mxGeometry>
        </mxCell>
        <mxCell id="84" value="Progress&#xa;Reports" style="text;spacingTop=-5;align=center" parent="1" vertex="1">
          <mxGeometry x="-255" y="-1679.9999999999998" width="30" height="20" as="geometry" />
        </mxCell>
        <mxCell id="85" value="" style="edgeStyle=elbowEdgeStyle;elbow=horizontal;strokeColor=#990000;strokeWidth=2" parent="1" source="10" target="13" edge="1">
          <mxGeometry width="100" height="100" relative="1" as="geometry">
            <mxPoint x="-535" y="-1550" as="sourcePoint" />
            <mxPoint x="-435" y="-1650" as="targetPoint" />
            <Array as="points">
              <mxPoint x="-421" y="-1660" />
            </Array>
          </mxGeometry>
        </mxCell>
        <mxCell id="86" value="Progress&#xa;Reports" style="text;spacingTop=-5;align=center" parent="1" vertex="1">
          <mxGeometry x="-409" y="-1640" width="30" height="20" as="geometry" />
        </mxCell>
        <mxCell id="87" value="" style="edgeStyle=elbowEdgeStyle;elbow=vertical;strokeColor=#990000;strokeWidth=2" parent="1" source="10" edge="1">
          <mxGeometry width="100" height="100" relative="1" as="geometry">
            <mxPoint x="-595" y="-1550" as="sourcePoint" />
            <mxPoint x="-540" y="-1732.333333333333" as="targetPoint" />
          </mxGeometry>
        </mxCell>
        <mxCell id="88" value="" style="edgeStyle=elbowEdgeStyle;elbow=horizontal;strokeColor=#990000;strokeWidth=2" parent="1" source="5" target="11" edge="1">
          <mxGeometry width="100" height="100" relative="1" as="geometry">
            <mxPoint x="-615" y="-1790" as="sourcePoint" />
            <mxPoint x="-515" y="-1890" as="targetPoint" />
            <Array as="points">
              <mxPoint x="-275" y="-1820" />
            </Array>
          </mxGeometry>
        </mxCell>
        <mxCell id="89" value="" style="edgeStyle=elbowEdgeStyle;elbow=horizontal;strokeColor=#990000;strokeWidth=2" parent="1" source="11" target="5" edge="1">
          <mxGeometry width="100" height="100" relative="1" as="geometry">
            <mxPoint x="-605" y="-1780" as="sourcePoint" />
            <mxPoint x="-505" y="-1880" as="targetPoint" />
            <Array as="points">
              <mxPoint x="-255" y="-1820" />
            </Array>
          </mxGeometry>
        </mxCell>
        <mxCell id="90" value="Version&#xa;specs" style="text;spacingTop=-5;align=center" parent="1" vertex="1">
          <mxGeometry x="-404" y="-1829" width="30" height="20" as="geometry" />
        </mxCell>
        <mxCell id="91" value="Certificates,&#xa;system&#xa;libraries" style="text;spacingTop=-5;align=center" parent="1" vertex="1">
          <mxGeometry x="-485" y="-1828.9999999999998" width="30" height="20" as="geometry" />
        </mxCell>
        <mxCell id="92" value="" style="edgeStyle=elbowEdgeStyle;elbow=horizontal;strokeColor=#990000;strokeWidth=2" parent="1" source="5" target="10" edge="1">
          <mxGeometry width="100" height="100" relative="1" as="geometry">
            <mxPoint x="-635" y="-1790" as="sourcePoint" />
            <mxPoint x="-535" y="-1890" as="targetPoint" />
            <Array as="points">
              <mxPoint x="-415" y="-1820" />
            </Array>
          </mxGeometry>
        </mxCell>
        <mxCell id="93" value="" style="edgeStyle=elbowEdgeStyle;elbow=horizontal;strokeColor=#990000;strokeWidth=2" parent="1" source="10" target="5" edge="1">
          <mxGeometry width="100" height="100" relative="1" as="geometry">
            <mxPoint x="-625" y="-1780" as="sourcePoint" />
            <mxPoint x="-525" y="-1880" as="targetPoint" />
            <Array as="points">
              <mxPoint x="-435" y="-1820" />
            </Array>
          </mxGeometry>
        </mxCell>
        <mxCell id="94" value="System&#xa;specs" style="text;spacingTop=-5;align=center" parent="1" vertex="1">
          <mxGeometry x="-525" y="-1725" width="30" height="20" as="geometry" />
        </mxCell>
        <mxCell id="95" value="Design&#xa;specs" style="text;spacingTop=-5;align=center" parent="1" vertex="1">
          <mxGeometry x="-241.5" y="-1828.9999999999998" width="30" height="20" as="geometry" />
        </mxCell>
        <mxCell id="96" value="System&#xa;version" style="text;spacingTop=-5;align=center" parent="1" vertex="1">
          <mxGeometry x="-314" y="-1829" width="30" height="20" as="geometry" />
        </mxCell>
        <mxCell id="im6uKeQKjoMlU5U68ikK-97" value="Text" style="text;html=1;align=center;verticalAlign=middle;resizable=0;points=[];autosize=1;strokeColor=none;fillColor=none;" vertex="1" parent="1">
          <mxGeometry x="1418" y="210" width="50" height="30" as="geometry" />
        </mxCell>
        <mxCell id="im6uKeQKjoMlU5U68ikK-98" value="&lt;b&gt;&lt;font style=&quot;font-size: 14px;&quot;&gt;Start&amp;nbsp;&lt;/font&gt;&lt;/b&gt;" style="rounded=0;whiteSpace=wrap;html=1;" vertex="1" parent="1">
          <mxGeometry x="-330" y="-1190" width="120" height="60" as="geometry" />
        </mxCell>
        <mxCell id="im6uKeQKjoMlU5U68ikK-99" value="&lt;b&gt;&lt;font style=&quot;font-size: 14px;&quot;&gt;Session 1&lt;/font&gt;&lt;/b&gt;" style="rounded=0;whiteSpace=wrap;html=1;fillColor=#e1d5e7;strokeColor=#9673a6;" vertex="1" parent="1">
          <mxGeometry x="-330" y="-850" width="120" height="60" as="geometry" />
        </mxCell>
        <mxCell id="im6uKeQKjoMlU5U68ikK-100" value="&lt;b&gt;&lt;font style=&quot;font-size: 14px;&quot;&gt;Follow up 4&lt;/font&gt;&lt;/b&gt;" style="rounded=0;whiteSpace=wrap;html=1;fillColor=#e1d5e7;strokeColor=#9673a6;" vertex="1" parent="1">
          <mxGeometry x="-330" y="1320" width="120" height="60" as="geometry" />
        </mxCell>
        <mxCell id="im6uKeQKjoMlU5U68ikK-101" value="&lt;b&gt;&lt;font style=&quot;font-size: 14px;&quot;&gt;Follow up 3&lt;/font&gt;&lt;/b&gt;" style="rounded=0;whiteSpace=wrap;html=1;fillColor=#e1d5e7;strokeColor=#9673a6;" vertex="1" parent="1">
          <mxGeometry x="-330" y="800" width="120" height="60" as="geometry" />
        </mxCell>
        <mxCell id="im6uKeQKjoMlU5U68ikK-102" value="&lt;b&gt;&lt;font style=&quot;font-size: 14px;&quot;&gt;Follow up 2&lt;/font&gt;&lt;/b&gt;" style="rounded=0;whiteSpace=wrap;html=1;fillColor=#e1d5e7;strokeColor=#9673a6;" vertex="1" parent="1">
          <mxGeometry x="-310" y="230" width="120" height="60" as="geometry" />
        </mxCell>
        <mxCell id="im6uKeQKjoMlU5U68ikK-103" value="&lt;b&gt;&lt;font style=&quot;font-size: 14px;&quot;&gt;Follow up 1&lt;/font&gt;&lt;/b&gt;" style="rounded=0;whiteSpace=wrap;html=1;fillColor=#e1d5e7;strokeColor=#9673a6;" vertex="1" parent="1">
          <mxGeometry x="-320" y="-320" width="120" height="60" as="geometry" />
        </mxCell>
        <mxCell id="im6uKeQKjoMlU5U68ikK-107" value="&lt;p style=&quot;line-height: 120%;&quot;&gt;&lt;b&gt;Media:&amp;nbsp;&lt;br&gt;&lt;br&gt;Media description:&lt;br&gt;&lt;br&gt;Media resources:&lt;br&gt;&lt;br&gt;&lt;br&gt;Task:&lt;br&gt;&lt;br&gt;Task description:&lt;br&gt;&lt;br&gt;&lt;br&gt;Task resources:&lt;br&gt;&lt;br&gt;&lt;br&gt;Training:&amp;nbsp;&lt;br&gt;&lt;br&gt;Training description:&lt;br&gt;&lt;br&gt;&lt;br&gt;Training resources:&lt;br&gt;&lt;br&gt;&lt;/b&gt;&lt;/p&gt;" style="rounded=0;whiteSpace=wrap;html=1;align=left;fillColor=#dae8fc;strokeColor=#6c8ebf;" vertex="1" parent="1">
          <mxGeometry x="-70" y="-1000" width="390" height="400" as="geometry" />
        </mxCell>
        <mxCell id="im6uKeQKjoMlU5U68ikK-105" value="&lt;b&gt;Information:&amp;nbsp;&lt;/b&gt;&lt;br&gt;&lt;br&gt;&lt;b&gt;Trigger:&lt;/b&gt;&lt;br&gt;&lt;br&gt;&lt;br&gt;&lt;b&gt;Task:&lt;/b&gt;&lt;br&gt;&lt;br&gt;&lt;br&gt;&lt;b&gt;Test/Check:&lt;/b&gt;&lt;br&gt;&lt;br&gt;&lt;br&gt;&lt;div style=&quot;&quot;&gt;&lt;span style=&quot;background-color: initial;&quot;&gt;&lt;b&gt;Training:&lt;/b&gt;&lt;/span&gt;&lt;/div&gt;&lt;div style=&quot;&quot;&gt;&lt;span style=&quot;background-color: initial;&quot;&gt;&lt;b&gt;&lt;br&gt;&lt;/b&gt;&lt;/span&gt;&lt;/div&gt;&lt;div style=&quot;&quot;&gt;&lt;span style=&quot;background-color: initial;&quot;&gt;&lt;b&gt;&lt;br&gt;&lt;/b&gt;&lt;/span&gt;&lt;/div&gt;&lt;div style=&quot;&quot;&gt;&lt;span style=&quot;background-color: initial;&quot;&gt;&lt;b&gt;Notes:&lt;/b&gt;&lt;/span&gt;&lt;/div&gt;&lt;div style=&quot;&quot;&gt;&lt;span style=&quot;background-color: initial;&quot;&gt;&lt;b&gt;&lt;br&gt;&lt;/b&gt;&lt;/span&gt;&lt;/div&gt;&lt;div style=&quot;&quot;&gt;&lt;span style=&quot;background-color: initial;&quot;&gt;&lt;b&gt;&lt;br&gt;&lt;/b&gt;&lt;/span&gt;&lt;/div&gt;&lt;div style=&quot;&quot;&gt;&lt;span style=&quot;background-color: initial;&quot;&gt;&lt;b&gt;&lt;br&gt;&lt;/b&gt;&lt;/span&gt;&lt;/div&gt;" style="rounded=0;whiteSpace=wrap;html=1;align=left;fillColor=#d5e8d4;strokeColor=#82b366;strokeWidth=2;" vertex="1" parent="1">
          <mxGeometry x="483" y="-940" width="390" height="280" as="geometry" />
        </mxCell>
        <mxCell id="im6uKeQKjoMlU5U68ikK-106" value="&lt;b&gt;Information:&amp;nbsp;&lt;/b&gt;&lt;br&gt;&lt;br&gt;&lt;b&gt;Trigger:&lt;/b&gt;&lt;br&gt;&lt;br&gt;&lt;br&gt;&lt;b&gt;Task:&lt;/b&gt;&lt;br&gt;&lt;br&gt;&lt;br&gt;&lt;b&gt;Test/Check:&lt;/b&gt;&lt;br&gt;&lt;br&gt;&lt;br&gt;&lt;div style=&quot;&quot;&gt;&lt;span style=&quot;background-color: initial;&quot;&gt;&lt;b&gt;Training:&lt;/b&gt;&lt;/span&gt;&lt;/div&gt;&lt;div style=&quot;&quot;&gt;&lt;span style=&quot;background-color: initial;&quot;&gt;&lt;b&gt;&lt;br&gt;&lt;/b&gt;&lt;/span&gt;&lt;/div&gt;&lt;div style=&quot;&quot;&gt;&lt;span style=&quot;background-color: initial;&quot;&gt;&lt;b&gt;&lt;br&gt;&lt;/b&gt;&lt;/span&gt;&lt;/div&gt;&lt;div style=&quot;&quot;&gt;&lt;span style=&quot;background-color: initial;&quot;&gt;&lt;b&gt;Notes:&lt;/b&gt;&lt;/span&gt;&lt;/div&gt;&lt;div style=&quot;&quot;&gt;&lt;span style=&quot;background-color: initial;&quot;&gt;&lt;b&gt;&lt;br&gt;&lt;/b&gt;&lt;/span&gt;&lt;/div&gt;&lt;div style=&quot;&quot;&gt;&lt;span style=&quot;background-color: initial;&quot;&gt;&lt;b&gt;&lt;br&gt;&lt;/b&gt;&lt;/span&gt;&lt;/div&gt;&lt;div style=&quot;&quot;&gt;&lt;span style=&quot;background-color: initial;&quot;&gt;&lt;b&gt;&lt;br&gt;&lt;/b&gt;&lt;/span&gt;&lt;/div&gt;" style="rounded=0;whiteSpace=wrap;html=1;align=left;fillColor=#f8cecc;strokeColor=#b85450;strokeWidth=3;" vertex="1" parent="1">
          <mxGeometry x="1103" y="-940" width="390" height="280" as="geometry" />
        </mxCell>
        <mxCell id="im6uKeQKjoMlU5U68ikK-110" value="&lt;p style=&quot;line-height: 120%;&quot;&gt;&lt;b&gt;Media:&amp;nbsp;&lt;br&gt;&lt;br&gt;Media description:&lt;br&gt;&lt;br&gt;Media resources:&lt;br&gt;&lt;br&gt;&lt;br&gt;Task:&lt;br&gt;&lt;br&gt;Task description:&lt;br&gt;&lt;br&gt;&lt;br&gt;Task resources:&lt;br&gt;&lt;br&gt;&lt;br&gt;Training:&amp;nbsp;&lt;br&gt;&lt;br&gt;Training description:&lt;br&gt;&lt;br&gt;&lt;br&gt;Training resources:&lt;br&gt;&lt;br&gt;&lt;/b&gt;&lt;/p&gt;" style="rounded=0;whiteSpace=wrap;html=1;align=left;fillColor=#f8cecc;strokeColor=#b85450;" vertex="1" parent="1">
          <mxGeometry x="1156" y="-1000" width="390" height="400" as="geometry" />
        </mxCell>
        <mxCell id="im6uKeQKjoMlU5U68ikK-111" value="&lt;p style=&quot;line-height: 120%;&quot;&gt;&lt;b&gt;Media:&amp;nbsp;&lt;br&gt;&lt;br&gt;Media description:&lt;br&gt;&lt;br&gt;Media resources:&lt;br&gt;&lt;br&gt;&lt;br&gt;Task:&lt;br&gt;&lt;br&gt;Task description:&lt;br&gt;&lt;br&gt;&lt;br&gt;Task resources:&lt;br&gt;&lt;br&gt;&lt;br&gt;Training:&amp;nbsp;&lt;br&gt;&lt;br&gt;Training description:&lt;br&gt;&lt;br&gt;&lt;br&gt;Training resources:&lt;br&gt;&lt;br&gt;&lt;/b&gt;&lt;/p&gt;" style="rounded=0;whiteSpace=wrap;html=1;align=left;fillColor=#d5e8d4;strokeColor=#82b366;" vertex="1" parent="1">
          <mxGeometry x="545" y="-1000" width="390" height="400" as="geometry" />
        </mxCell>
        <mxCell id="im6uKeQKjoMlU5U68ikK-112" value="&lt;b&gt;Information:&amp;nbsp;&lt;/b&gt;&lt;br&gt;&lt;br&gt;&lt;b&gt;Trigger:&lt;/b&gt;&lt;br&gt;&lt;br&gt;&lt;br&gt;&lt;b&gt;Task:&lt;/b&gt;&lt;br&gt;&lt;br&gt;&lt;br&gt;&lt;b&gt;Test/Check:&lt;/b&gt;&lt;br&gt;&lt;br&gt;&lt;br&gt;&lt;div style=&quot;&quot;&gt;&lt;span style=&quot;background-color: initial;&quot;&gt;&lt;b&gt;Training:&lt;/b&gt;&lt;/span&gt;&lt;/div&gt;&lt;div style=&quot;&quot;&gt;&lt;span style=&quot;background-color: initial;&quot;&gt;&lt;b&gt;&lt;br&gt;&lt;/b&gt;&lt;/span&gt;&lt;/div&gt;&lt;div style=&quot;&quot;&gt;&lt;span style=&quot;background-color: initial;&quot;&gt;&lt;b&gt;&lt;br&gt;&lt;/b&gt;&lt;/span&gt;&lt;/div&gt;&lt;div style=&quot;&quot;&gt;&lt;span style=&quot;background-color: initial;&quot;&gt;&lt;b&gt;Notes:&lt;/b&gt;&lt;/span&gt;&lt;/div&gt;&lt;div style=&quot;&quot;&gt;&lt;span style=&quot;background-color: initial;&quot;&gt;&lt;b&gt;&lt;br&gt;&lt;/b&gt;&lt;/span&gt;&lt;/div&gt;&lt;div style=&quot;&quot;&gt;&lt;span style=&quot;background-color: initial;&quot;&gt;&lt;b&gt;&lt;br&gt;&lt;/b&gt;&lt;/span&gt;&lt;/div&gt;&lt;div style=&quot;&quot;&gt;&lt;span style=&quot;background-color: initial;&quot;&gt;&lt;b&gt;&lt;br&gt;&lt;/b&gt;&lt;/span&gt;&lt;/div&gt;" style="rounded=0;whiteSpace=wrap;html=1;align=left;fillColor=#dae8fc;strokeColor=#6c8ebf;strokeWidth=3;" vertex="1" parent="1">
          <mxGeometry x="-130" y="-410" width="390" height="280" as="geometry" />
        </mxCell>
        <mxCell id="im6uKeQKjoMlU5U68ikK-113" value="&lt;p style=&quot;line-height: 120%;&quot;&gt;&lt;b&gt;Media:&amp;nbsp;&lt;br&gt;&lt;br&gt;Media description:&lt;br&gt;&lt;br&gt;Media resources:&lt;br&gt;&lt;br&gt;&lt;br&gt;Task:&lt;br&gt;&lt;br&gt;Task description:&lt;br&gt;&lt;br&gt;&lt;br&gt;Task resources:&lt;br&gt;&lt;br&gt;&lt;br&gt;Training:&amp;nbsp;&lt;br&gt;&lt;br&gt;Training description:&lt;br&gt;&lt;br&gt;&lt;br&gt;Training resources:&lt;br&gt;&lt;br&gt;&lt;/b&gt;&lt;/p&gt;" style="rounded=0;whiteSpace=wrap;html=1;align=left;fillColor=#dae8fc;strokeColor=#6c8ebf;" vertex="1" parent="1">
          <mxGeometry x="-70" y="-470" width="390" height="400" as="geometry" />
        </mxCell>
        <mxCell id="im6uKeQKjoMlU5U68ikK-114" value="&lt;b&gt;Information:&amp;nbsp;&lt;/b&gt;&lt;br&gt;&lt;br&gt;&lt;b&gt;Trigger:&lt;/b&gt;&lt;br&gt;&lt;br&gt;&lt;br&gt;&lt;b&gt;Task:&lt;/b&gt;&lt;br&gt;&lt;br&gt;&lt;br&gt;&lt;b&gt;Test/Check:&lt;/b&gt;&lt;br&gt;&lt;br&gt;&lt;br&gt;&lt;div style=&quot;&quot;&gt;&lt;span style=&quot;background-color: initial;&quot;&gt;&lt;b&gt;Training:&lt;/b&gt;&lt;/span&gt;&lt;/div&gt;&lt;div style=&quot;&quot;&gt;&lt;span style=&quot;background-color: initial;&quot;&gt;&lt;b&gt;&lt;br&gt;&lt;/b&gt;&lt;/span&gt;&lt;/div&gt;&lt;div style=&quot;&quot;&gt;&lt;span style=&quot;background-color: initial;&quot;&gt;&lt;b&gt;&lt;br&gt;&lt;/b&gt;&lt;/span&gt;&lt;/div&gt;&lt;div style=&quot;&quot;&gt;&lt;span style=&quot;background-color: initial;&quot;&gt;&lt;b&gt;Notes:&lt;/b&gt;&lt;/span&gt;&lt;/div&gt;&lt;div style=&quot;&quot;&gt;&lt;span style=&quot;background-color: initial;&quot;&gt;&lt;b&gt;&lt;br&gt;&lt;/b&gt;&lt;/span&gt;&lt;/div&gt;&lt;div style=&quot;&quot;&gt;&lt;span style=&quot;background-color: initial;&quot;&gt;&lt;b&gt;&lt;br&gt;&lt;/b&gt;&lt;/span&gt;&lt;/div&gt;&lt;div style=&quot;&quot;&gt;&lt;span style=&quot;background-color: initial;&quot;&gt;&lt;b&gt;&lt;br&gt;&lt;/b&gt;&lt;/span&gt;&lt;/div&gt;" style="rounded=0;whiteSpace=wrap;html=1;align=left;fillColor=#d5e8d4;strokeColor=#82b366;strokeWidth=2;" vertex="1" parent="1">
          <mxGeometry x="483" y="-410" width="390" height="280" as="geometry" />
        </mxCell>
        <mxCell id="im6uKeQKjoMlU5U68ikK-115" value="&lt;b&gt;Information:&amp;nbsp;&lt;/b&gt;&lt;br&gt;&lt;br&gt;&lt;b&gt;Trigger:&lt;/b&gt;&lt;br&gt;&lt;br&gt;&lt;br&gt;&lt;b&gt;Task:&lt;/b&gt;&lt;br&gt;&lt;br&gt;&lt;br&gt;&lt;b&gt;Test/Check:&lt;/b&gt;&lt;br&gt;&lt;br&gt;&lt;br&gt;&lt;div style=&quot;&quot;&gt;&lt;span style=&quot;background-color: initial;&quot;&gt;&lt;b&gt;Training:&lt;/b&gt;&lt;/span&gt;&lt;/div&gt;&lt;div style=&quot;&quot;&gt;&lt;span style=&quot;background-color: initial;&quot;&gt;&lt;b&gt;&lt;br&gt;&lt;/b&gt;&lt;/span&gt;&lt;/div&gt;&lt;div style=&quot;&quot;&gt;&lt;span style=&quot;background-color: initial;&quot;&gt;&lt;b&gt;&lt;br&gt;&lt;/b&gt;&lt;/span&gt;&lt;/div&gt;&lt;div style=&quot;&quot;&gt;&lt;span style=&quot;background-color: initial;&quot;&gt;&lt;b&gt;Notes:&lt;/b&gt;&lt;/span&gt;&lt;/div&gt;&lt;div style=&quot;&quot;&gt;&lt;span style=&quot;background-color: initial;&quot;&gt;&lt;b&gt;&lt;br&gt;&lt;/b&gt;&lt;/span&gt;&lt;/div&gt;&lt;div style=&quot;&quot;&gt;&lt;span style=&quot;background-color: initial;&quot;&gt;&lt;b&gt;&lt;br&gt;&lt;/b&gt;&lt;/span&gt;&lt;/div&gt;&lt;div style=&quot;&quot;&gt;&lt;span style=&quot;background-color: initial;&quot;&gt;&lt;b&gt;&lt;br&gt;&lt;/b&gt;&lt;/span&gt;&lt;/div&gt;" style="rounded=0;whiteSpace=wrap;html=1;align=left;fillColor=#f8cecc;strokeColor=#b85450;strokeWidth=3;" vertex="1" parent="1">
          <mxGeometry x="1103" y="-410" width="390" height="280" as="geometry" />
        </mxCell>
        <mxCell id="im6uKeQKjoMlU5U68ikK-116" value="&lt;p style=&quot;line-height: 120%;&quot;&gt;&lt;b&gt;Media:&amp;nbsp;&lt;br&gt;&lt;br&gt;Media description:&lt;br&gt;&lt;br&gt;Media resources:&lt;br&gt;&lt;br&gt;&lt;br&gt;Task:&lt;br&gt;&lt;br&gt;Task description:&lt;br&gt;&lt;br&gt;&lt;br&gt;Task resources:&lt;br&gt;&lt;br&gt;&lt;br&gt;Training:&amp;nbsp;&lt;br&gt;&lt;br&gt;Training description:&lt;br&gt;&lt;br&gt;&lt;br&gt;Training resources:&lt;br&gt;&lt;br&gt;&lt;/b&gt;&lt;/p&gt;" style="rounded=0;whiteSpace=wrap;html=1;align=left;fillColor=#f8cecc;strokeColor=#b85450;" vertex="1" parent="1">
          <mxGeometry x="1156" y="-470" width="390" height="400" as="geometry" />
        </mxCell>
        <mxCell id="im6uKeQKjoMlU5U68ikK-117" value="&lt;p style=&quot;line-height: 120%;&quot;&gt;&lt;b&gt;Media:&amp;nbsp;&lt;br&gt;&lt;br&gt;Media description:&lt;br&gt;&lt;br&gt;Media resources:&lt;br&gt;&lt;br&gt;&lt;br&gt;Task:&lt;br&gt;&lt;br&gt;Task description:&lt;br&gt;&lt;br&gt;&lt;br&gt;Task resources:&lt;br&gt;&lt;br&gt;&lt;br&gt;Training:&amp;nbsp;&lt;br&gt;&lt;br&gt;Training description:&lt;br&gt;&lt;br&gt;&lt;br&gt;Training resources:&lt;br&gt;&lt;br&gt;&lt;/b&gt;&lt;/p&gt;" style="rounded=0;whiteSpace=wrap;html=1;align=left;fillColor=#d5e8d4;strokeColor=#82b366;" vertex="1" parent="1">
          <mxGeometry x="545" y="-470" width="390" height="400" as="geometry" />
        </mxCell>
        <mxCell id="im6uKeQKjoMlU5U68ikK-118" value="&lt;b&gt;Information:&amp;nbsp;&lt;/b&gt;&lt;br&gt;&lt;br&gt;&lt;b&gt;Trigger:&lt;/b&gt;&lt;br&gt;&lt;br&gt;&lt;br&gt;&lt;b&gt;Task:&lt;/b&gt;&lt;br&gt;&lt;br&gt;&lt;br&gt;&lt;b&gt;Test/Check:&lt;/b&gt;&lt;br&gt;&lt;br&gt;&lt;br&gt;&lt;div style=&quot;&quot;&gt;&lt;span style=&quot;background-color: initial;&quot;&gt;&lt;b&gt;Training:&lt;/b&gt;&lt;/span&gt;&lt;/div&gt;&lt;div style=&quot;&quot;&gt;&lt;span style=&quot;background-color: initial;&quot;&gt;&lt;b&gt;&lt;br&gt;&lt;/b&gt;&lt;/span&gt;&lt;/div&gt;&lt;div style=&quot;&quot;&gt;&lt;span style=&quot;background-color: initial;&quot;&gt;&lt;b&gt;&lt;br&gt;&lt;/b&gt;&lt;/span&gt;&lt;/div&gt;&lt;div style=&quot;&quot;&gt;&lt;span style=&quot;background-color: initial;&quot;&gt;&lt;b&gt;Notes:&lt;/b&gt;&lt;/span&gt;&lt;/div&gt;&lt;div style=&quot;&quot;&gt;&lt;span style=&quot;background-color: initial;&quot;&gt;&lt;b&gt;&lt;br&gt;&lt;/b&gt;&lt;/span&gt;&lt;/div&gt;&lt;div style=&quot;&quot;&gt;&lt;span style=&quot;background-color: initial;&quot;&gt;&lt;b&gt;&lt;br&gt;&lt;/b&gt;&lt;/span&gt;&lt;/div&gt;&lt;div style=&quot;&quot;&gt;&lt;span style=&quot;background-color: initial;&quot;&gt;&lt;b&gt;&lt;br&gt;&lt;/b&gt;&lt;/span&gt;&lt;/div&gt;" style="rounded=0;whiteSpace=wrap;html=1;align=left;fillColor=#dae8fc;strokeColor=#6c8ebf;strokeWidth=3;" vertex="1" parent="1">
          <mxGeometry x="-130" y="140" width="390" height="280" as="geometry" />
        </mxCell>
        <mxCell id="im6uKeQKjoMlU5U68ikK-119" value="&lt;p style=&quot;line-height: 120%;&quot;&gt;&lt;b&gt;Media:&amp;nbsp;&lt;br&gt;&lt;br&gt;Media description:&lt;br&gt;&lt;br&gt;Media resources:&lt;br&gt;&lt;br&gt;&lt;br&gt;Task:&lt;br&gt;&lt;br&gt;Task description:&lt;br&gt;&lt;br&gt;&lt;br&gt;Task resources:&lt;br&gt;&lt;br&gt;&lt;br&gt;Training:&amp;nbsp;&lt;br&gt;&lt;br&gt;Training description:&lt;br&gt;&lt;br&gt;&lt;br&gt;Training resources:&lt;br&gt;&lt;br&gt;&lt;/b&gt;&lt;/p&gt;" style="rounded=0;whiteSpace=wrap;html=1;align=left;fillColor=#dae8fc;strokeColor=#6c8ebf;" vertex="1" parent="1">
          <mxGeometry x="-70" y="80" width="390" height="400" as="geometry" />
        </mxCell>
        <mxCell id="im6uKeQKjoMlU5U68ikK-120" value="&lt;b&gt;Information:&amp;nbsp;&lt;/b&gt;&lt;br&gt;&lt;br&gt;&lt;b&gt;Trigger:&lt;/b&gt;&lt;br&gt;&lt;br&gt;&lt;br&gt;&lt;b&gt;Task:&lt;/b&gt;&lt;br&gt;&lt;br&gt;&lt;br&gt;&lt;b&gt;Test/Check:&lt;/b&gt;&lt;br&gt;&lt;br&gt;&lt;br&gt;&lt;div style=&quot;&quot;&gt;&lt;span style=&quot;background-color: initial;&quot;&gt;&lt;b&gt;Training:&lt;/b&gt;&lt;/span&gt;&lt;/div&gt;&lt;div style=&quot;&quot;&gt;&lt;span style=&quot;background-color: initial;&quot;&gt;&lt;b&gt;&lt;br&gt;&lt;/b&gt;&lt;/span&gt;&lt;/div&gt;&lt;div style=&quot;&quot;&gt;&lt;span style=&quot;background-color: initial;&quot;&gt;&lt;b&gt;&lt;br&gt;&lt;/b&gt;&lt;/span&gt;&lt;/div&gt;&lt;div style=&quot;&quot;&gt;&lt;span style=&quot;background-color: initial;&quot;&gt;&lt;b&gt;Notes:&lt;/b&gt;&lt;/span&gt;&lt;/div&gt;&lt;div style=&quot;&quot;&gt;&lt;span style=&quot;background-color: initial;&quot;&gt;&lt;b&gt;&lt;br&gt;&lt;/b&gt;&lt;/span&gt;&lt;/div&gt;&lt;div style=&quot;&quot;&gt;&lt;span style=&quot;background-color: initial;&quot;&gt;&lt;b&gt;&lt;br&gt;&lt;/b&gt;&lt;/span&gt;&lt;/div&gt;&lt;div style=&quot;&quot;&gt;&lt;span style=&quot;background-color: initial;&quot;&gt;&lt;b&gt;&lt;br&gt;&lt;/b&gt;&lt;/span&gt;&lt;/div&gt;" style="rounded=0;whiteSpace=wrap;html=1;align=left;fillColor=#d5e8d4;strokeColor=#82b366;strokeWidth=2;" vertex="1" parent="1">
          <mxGeometry x="483" y="140" width="390" height="280" as="geometry" />
        </mxCell>
        <mxCell id="im6uKeQKjoMlU5U68ikK-121" value="&lt;b&gt;Information:&amp;nbsp;&lt;/b&gt;&lt;br&gt;&lt;br&gt;&lt;b&gt;Trigger:&lt;/b&gt;&lt;br&gt;&lt;br&gt;&lt;br&gt;&lt;b&gt;Task:&lt;/b&gt;&lt;br&gt;&lt;br&gt;&lt;br&gt;&lt;b&gt;Test/Check:&lt;/b&gt;&lt;br&gt;&lt;br&gt;&lt;br&gt;&lt;div style=&quot;&quot;&gt;&lt;span style=&quot;background-color: initial;&quot;&gt;&lt;b&gt;Training:&lt;/b&gt;&lt;/span&gt;&lt;/div&gt;&lt;div style=&quot;&quot;&gt;&lt;span style=&quot;background-color: initial;&quot;&gt;&lt;b&gt;&lt;br&gt;&lt;/b&gt;&lt;/span&gt;&lt;/div&gt;&lt;div style=&quot;&quot;&gt;&lt;span style=&quot;background-color: initial;&quot;&gt;&lt;b&gt;&lt;br&gt;&lt;/b&gt;&lt;/span&gt;&lt;/div&gt;&lt;div style=&quot;&quot;&gt;&lt;span style=&quot;background-color: initial;&quot;&gt;&lt;b&gt;Notes:&lt;/b&gt;&lt;/span&gt;&lt;/div&gt;&lt;div style=&quot;&quot;&gt;&lt;span style=&quot;background-color: initial;&quot;&gt;&lt;b&gt;&lt;br&gt;&lt;/b&gt;&lt;/span&gt;&lt;/div&gt;&lt;div style=&quot;&quot;&gt;&lt;span style=&quot;background-color: initial;&quot;&gt;&lt;b&gt;&lt;br&gt;&lt;/b&gt;&lt;/span&gt;&lt;/div&gt;&lt;div style=&quot;&quot;&gt;&lt;span style=&quot;background-color: initial;&quot;&gt;&lt;b&gt;&lt;br&gt;&lt;/b&gt;&lt;/span&gt;&lt;/div&gt;" style="rounded=0;whiteSpace=wrap;html=1;align=left;fillColor=#f8cecc;strokeColor=#b85450;strokeWidth=3;" vertex="1" parent="1">
          <mxGeometry x="1103" y="140" width="390" height="280" as="geometry" />
        </mxCell>
        <mxCell id="im6uKeQKjoMlU5U68ikK-122" value="&lt;p style=&quot;line-height: 120%;&quot;&gt;&lt;b&gt;Media:&amp;nbsp;&lt;br&gt;&lt;br&gt;Media description:&lt;br&gt;&lt;br&gt;Media resources:&lt;br&gt;&lt;br&gt;&lt;br&gt;Task:&lt;br&gt;&lt;br&gt;Task description:&lt;br&gt;&lt;br&gt;&lt;br&gt;Task resources:&lt;br&gt;&lt;br&gt;&lt;br&gt;Training:&amp;nbsp;&lt;br&gt;&lt;br&gt;Training description:&lt;br&gt;&lt;br&gt;&lt;br&gt;Training resources:&lt;br&gt;&lt;br&gt;&lt;/b&gt;&lt;/p&gt;" style="rounded=0;whiteSpace=wrap;html=1;align=left;fillColor=#f8cecc;strokeColor=#b85450;" vertex="1" parent="1">
          <mxGeometry x="1156" y="80" width="390" height="400" as="geometry" />
        </mxCell>
        <mxCell id="im6uKeQKjoMlU5U68ikK-123" value="&lt;p style=&quot;line-height: 120%;&quot;&gt;&lt;b&gt;Media:&amp;nbsp;&lt;br&gt;&lt;br&gt;Media description:&lt;br&gt;&lt;br&gt;Media resources:&lt;br&gt;&lt;br&gt;&lt;br&gt;Task:&lt;br&gt;&lt;br&gt;Task description:&lt;br&gt;&lt;br&gt;&lt;br&gt;Task resources:&lt;br&gt;&lt;br&gt;&lt;br&gt;Training:&amp;nbsp;&lt;br&gt;&lt;br&gt;Training description:&lt;br&gt;&lt;br&gt;&lt;br&gt;Training resources:&lt;br&gt;&lt;br&gt;&lt;/b&gt;&lt;/p&gt;" style="rounded=0;whiteSpace=wrap;html=1;align=left;fillColor=#d5e8d4;strokeColor=#82b366;" vertex="1" parent="1">
          <mxGeometry x="545" y="80" width="390" height="400" as="geometry" />
        </mxCell>
        <mxCell id="im6uKeQKjoMlU5U68ikK-124" value="&lt;b&gt;Information:&amp;nbsp;&lt;/b&gt;&lt;br&gt;&lt;br&gt;&lt;b&gt;Trigger:&lt;/b&gt;&lt;br&gt;&lt;br&gt;&lt;br&gt;&lt;b&gt;Task:&lt;/b&gt;&lt;br&gt;&lt;br&gt;&lt;br&gt;&lt;b&gt;Test/Check:&lt;/b&gt;&lt;br&gt;&lt;br&gt;&lt;br&gt;&lt;div style=&quot;&quot;&gt;&lt;span style=&quot;background-color: initial;&quot;&gt;&lt;b&gt;Training:&lt;/b&gt;&lt;/span&gt;&lt;/div&gt;&lt;div style=&quot;&quot;&gt;&lt;span style=&quot;background-color: initial;&quot;&gt;&lt;b&gt;&lt;br&gt;&lt;/b&gt;&lt;/span&gt;&lt;/div&gt;&lt;div style=&quot;&quot;&gt;&lt;span style=&quot;background-color: initial;&quot;&gt;&lt;b&gt;&lt;br&gt;&lt;/b&gt;&lt;/span&gt;&lt;/div&gt;&lt;div style=&quot;&quot;&gt;&lt;span style=&quot;background-color: initial;&quot;&gt;&lt;b&gt;Notes:&lt;/b&gt;&lt;/span&gt;&lt;/div&gt;&lt;div style=&quot;&quot;&gt;&lt;span style=&quot;background-color: initial;&quot;&gt;&lt;b&gt;&lt;br&gt;&lt;/b&gt;&lt;/span&gt;&lt;/div&gt;&lt;div style=&quot;&quot;&gt;&lt;span style=&quot;background-color: initial;&quot;&gt;&lt;b&gt;&lt;br&gt;&lt;/b&gt;&lt;/span&gt;&lt;/div&gt;&lt;div style=&quot;&quot;&gt;&lt;span style=&quot;background-color: initial;&quot;&gt;&lt;b&gt;&lt;br&gt;&lt;/b&gt;&lt;/span&gt;&lt;/div&gt;" style="rounded=0;whiteSpace=wrap;html=1;align=left;fillColor=#dae8fc;strokeColor=#6c8ebf;strokeWidth=3;" vertex="1" parent="1">
          <mxGeometry x="-146.5" y="700" width="390" height="280" as="geometry" />
        </mxCell>
        <mxCell id="im6uKeQKjoMlU5U68ikK-125" value="&lt;p style=&quot;line-height: 120%;&quot;&gt;&lt;b&gt;Media:&amp;nbsp;&lt;br&gt;&lt;br&gt;Media description:&lt;br&gt;&lt;br&gt;Media resources:&lt;br&gt;&lt;br&gt;&lt;br&gt;Task:&lt;br&gt;&lt;br&gt;Task description:&lt;br&gt;&lt;br&gt;&lt;br&gt;Task resources:&lt;br&gt;&lt;br&gt;&lt;br&gt;Training:&amp;nbsp;&lt;br&gt;&lt;br&gt;Training description:&lt;br&gt;&lt;br&gt;&lt;br&gt;Training resources:&lt;br&gt;&lt;br&gt;&lt;/b&gt;&lt;/p&gt;" style="rounded=0;whiteSpace=wrap;html=1;align=left;fillColor=#dae8fc;strokeColor=#6c8ebf;" vertex="1" parent="1">
          <mxGeometry x="-86.5" y="640" width="390" height="400" as="geometry" />
        </mxCell>
        <mxCell id="im6uKeQKjoMlU5U68ikK-126" value="&lt;b&gt;Information:&amp;nbsp;&lt;/b&gt;&lt;br&gt;&lt;br&gt;&lt;b&gt;Trigger:&lt;/b&gt;&lt;br&gt;&lt;br&gt;&lt;br&gt;&lt;b&gt;Task:&lt;/b&gt;&lt;br&gt;&lt;br&gt;&lt;br&gt;&lt;b&gt;Test/Check:&lt;/b&gt;&lt;br&gt;&lt;br&gt;&lt;br&gt;&lt;div style=&quot;&quot;&gt;&lt;span style=&quot;background-color: initial;&quot;&gt;&lt;b&gt;Training:&lt;/b&gt;&lt;/span&gt;&lt;/div&gt;&lt;div style=&quot;&quot;&gt;&lt;span style=&quot;background-color: initial;&quot;&gt;&lt;b&gt;&lt;br&gt;&lt;/b&gt;&lt;/span&gt;&lt;/div&gt;&lt;div style=&quot;&quot;&gt;&lt;span style=&quot;background-color: initial;&quot;&gt;&lt;b&gt;&lt;br&gt;&lt;/b&gt;&lt;/span&gt;&lt;/div&gt;&lt;div style=&quot;&quot;&gt;&lt;span style=&quot;background-color: initial;&quot;&gt;&lt;b&gt;Notes:&lt;/b&gt;&lt;/span&gt;&lt;/div&gt;&lt;div style=&quot;&quot;&gt;&lt;span style=&quot;background-color: initial;&quot;&gt;&lt;b&gt;&lt;br&gt;&lt;/b&gt;&lt;/span&gt;&lt;/div&gt;&lt;div style=&quot;&quot;&gt;&lt;span style=&quot;background-color: initial;&quot;&gt;&lt;b&gt;&lt;br&gt;&lt;/b&gt;&lt;/span&gt;&lt;/div&gt;&lt;div style=&quot;&quot;&gt;&lt;span style=&quot;background-color: initial;&quot;&gt;&lt;b&gt;&lt;br&gt;&lt;/b&gt;&lt;/span&gt;&lt;/div&gt;" style="rounded=0;whiteSpace=wrap;html=1;align=left;fillColor=#d5e8d4;strokeColor=#82b366;strokeWidth=2;" vertex="1" parent="1">
          <mxGeometry x="466.5" y="700" width="390" height="280" as="geometry" />
        </mxCell>
        <mxCell id="im6uKeQKjoMlU5U68ikK-127" value="&lt;b&gt;Information:&amp;nbsp;&lt;/b&gt;&lt;br&gt;&lt;br&gt;&lt;b&gt;Trigger:&lt;/b&gt;&lt;br&gt;&lt;br&gt;&lt;br&gt;&lt;b&gt;Task:&lt;/b&gt;&lt;br&gt;&lt;br&gt;&lt;br&gt;&lt;b&gt;Test/Check:&lt;/b&gt;&lt;br&gt;&lt;br&gt;&lt;br&gt;&lt;div style=&quot;&quot;&gt;&lt;span style=&quot;background-color: initial;&quot;&gt;&lt;b&gt;Training:&lt;/b&gt;&lt;/span&gt;&lt;/div&gt;&lt;div style=&quot;&quot;&gt;&lt;span style=&quot;background-color: initial;&quot;&gt;&lt;b&gt;&lt;br&gt;&lt;/b&gt;&lt;/span&gt;&lt;/div&gt;&lt;div style=&quot;&quot;&gt;&lt;span style=&quot;background-color: initial;&quot;&gt;&lt;b&gt;&lt;br&gt;&lt;/b&gt;&lt;/span&gt;&lt;/div&gt;&lt;div style=&quot;&quot;&gt;&lt;span style=&quot;background-color: initial;&quot;&gt;&lt;b&gt;Notes:&lt;/b&gt;&lt;/span&gt;&lt;/div&gt;&lt;div style=&quot;&quot;&gt;&lt;span style=&quot;background-color: initial;&quot;&gt;&lt;b&gt;&lt;br&gt;&lt;/b&gt;&lt;/span&gt;&lt;/div&gt;&lt;div style=&quot;&quot;&gt;&lt;span style=&quot;background-color: initial;&quot;&gt;&lt;b&gt;&lt;br&gt;&lt;/b&gt;&lt;/span&gt;&lt;/div&gt;&lt;div style=&quot;&quot;&gt;&lt;span style=&quot;background-color: initial;&quot;&gt;&lt;b&gt;&lt;br&gt;&lt;/b&gt;&lt;/span&gt;&lt;/div&gt;" style="rounded=0;whiteSpace=wrap;html=1;align=left;fillColor=#f8cecc;strokeColor=#b85450;strokeWidth=3;" vertex="1" parent="1">
          <mxGeometry x="1086.5" y="700" width="390" height="280" as="geometry" />
        </mxCell>
        <mxCell id="im6uKeQKjoMlU5U68ikK-128" value="&lt;p style=&quot;line-height: 120%;&quot;&gt;&lt;b&gt;Media:&amp;nbsp;&lt;br&gt;&lt;br&gt;Media description:&lt;br&gt;&lt;br&gt;Media resources:&lt;br&gt;&lt;br&gt;&lt;br&gt;Task:&lt;br&gt;&lt;br&gt;Task description:&lt;br&gt;&lt;br&gt;&lt;br&gt;Task resources:&lt;br&gt;&lt;br&gt;&lt;br&gt;Training:&amp;nbsp;&lt;br&gt;&lt;br&gt;Training description:&lt;br&gt;&lt;br&gt;&lt;br&gt;Training resources:&lt;br&gt;&lt;br&gt;&lt;/b&gt;&lt;/p&gt;" style="rounded=0;whiteSpace=wrap;html=1;align=left;fillColor=#f8cecc;strokeColor=#b85450;" vertex="1" parent="1">
          <mxGeometry x="1139.5" y="640" width="390" height="400" as="geometry" />
        </mxCell>
        <mxCell id="im6uKeQKjoMlU5U68ikK-129" value="&lt;p style=&quot;line-height: 120%;&quot;&gt;&lt;b&gt;Media:&amp;nbsp;&lt;br&gt;&lt;br&gt;Media description:&lt;br&gt;&lt;br&gt;Media resources:&lt;br&gt;&lt;br&gt;&lt;br&gt;Task:&lt;br&gt;&lt;br&gt;Task description:&lt;br&gt;&lt;br&gt;&lt;br&gt;Task resources:&lt;br&gt;&lt;br&gt;&lt;br&gt;Training:&amp;nbsp;&lt;br&gt;&lt;br&gt;Training description:&lt;br&gt;&lt;br&gt;&lt;br&gt;Training resources:&lt;br&gt;&lt;br&gt;&lt;/b&gt;&lt;/p&gt;" style="rounded=0;whiteSpace=wrap;html=1;align=left;fillColor=#d5e8d4;strokeColor=#82b366;" vertex="1" parent="1">
          <mxGeometry x="528.5" y="640" width="390" height="400" as="geometry" />
        </mxCell>
        <mxCell id="im6uKeQKjoMlU5U68ikK-130" value="&lt;b&gt;Information:&amp;nbsp;&lt;/b&gt;&lt;br&gt;&lt;br&gt;&lt;b&gt;Trigger:&lt;/b&gt;&lt;br&gt;&lt;br&gt;&lt;br&gt;&lt;b&gt;Task:&lt;/b&gt;&lt;br&gt;&lt;br&gt;&lt;br&gt;&lt;b&gt;Test/Check:&lt;/b&gt;&lt;br&gt;&lt;br&gt;&lt;br&gt;&lt;div style=&quot;&quot;&gt;&lt;span style=&quot;background-color: initial;&quot;&gt;&lt;b&gt;Training:&lt;/b&gt;&lt;/span&gt;&lt;/div&gt;&lt;div style=&quot;&quot;&gt;&lt;span style=&quot;background-color: initial;&quot;&gt;&lt;b&gt;&lt;br&gt;&lt;/b&gt;&lt;/span&gt;&lt;/div&gt;&lt;div style=&quot;&quot;&gt;&lt;span style=&quot;background-color: initial;&quot;&gt;&lt;b&gt;&lt;br&gt;&lt;/b&gt;&lt;/span&gt;&lt;/div&gt;&lt;div style=&quot;&quot;&gt;&lt;span style=&quot;background-color: initial;&quot;&gt;&lt;b&gt;Notes:&lt;/b&gt;&lt;/span&gt;&lt;/div&gt;&lt;div style=&quot;&quot;&gt;&lt;span style=&quot;background-color: initial;&quot;&gt;&lt;b&gt;&lt;br&gt;&lt;/b&gt;&lt;/span&gt;&lt;/div&gt;&lt;div style=&quot;&quot;&gt;&lt;span style=&quot;background-color: initial;&quot;&gt;&lt;b&gt;&lt;br&gt;&lt;/b&gt;&lt;/span&gt;&lt;/div&gt;&lt;div style=&quot;&quot;&gt;&lt;span style=&quot;background-color: initial;&quot;&gt;&lt;b&gt;&lt;br&gt;&lt;/b&gt;&lt;/span&gt;&lt;/div&gt;" style="rounded=0;whiteSpace=wrap;html=1;align=left;fillColor=#dae8fc;strokeColor=#6c8ebf;strokeWidth=3;" vertex="1" parent="1">
          <mxGeometry x="-163" y="1229" width="390" height="280" as="geometry" />
        </mxCell>
        <mxCell id="im6uKeQKjoMlU5U68ikK-131" value="&lt;p style=&quot;line-height: 120%;&quot;&gt;&lt;b&gt;Media:&amp;nbsp;&lt;br&gt;&lt;br&gt;Media description:&lt;br&gt;&lt;br&gt;Media resources:&lt;br&gt;&lt;br&gt;&lt;br&gt;Task:&lt;br&gt;&lt;br&gt;Task description:&lt;br&gt;&lt;br&gt;&lt;br&gt;Task resources:&lt;br&gt;&lt;br&gt;&lt;br&gt;Training:&amp;nbsp;&lt;br&gt;&lt;br&gt;Training description:&lt;br&gt;&lt;br&gt;&lt;br&gt;Training resources:&lt;br&gt;&lt;br&gt;&lt;/b&gt;&lt;/p&gt;" style="rounded=0;whiteSpace=wrap;html=1;align=left;fillColor=#dae8fc;strokeColor=#6c8ebf;" vertex="1" parent="1">
          <mxGeometry x="-103" y="1169" width="390" height="400" as="geometry" />
        </mxCell>
        <mxCell id="im6uKeQKjoMlU5U68ikK-132" value="&lt;b&gt;Information:&amp;nbsp;&lt;/b&gt;&lt;br&gt;&lt;br&gt;&lt;b&gt;Trigger:&lt;/b&gt;&lt;br&gt;&lt;br&gt;&lt;br&gt;&lt;b&gt;Task:&lt;/b&gt;&lt;br&gt;&lt;br&gt;&lt;br&gt;&lt;b&gt;Test/Check:&lt;/b&gt;&lt;br&gt;&lt;br&gt;&lt;br&gt;&lt;div style=&quot;&quot;&gt;&lt;span style=&quot;background-color: initial;&quot;&gt;&lt;b&gt;Training:&lt;/b&gt;&lt;/span&gt;&lt;/div&gt;&lt;div style=&quot;&quot;&gt;&lt;span style=&quot;background-color: initial;&quot;&gt;&lt;b&gt;&lt;br&gt;&lt;/b&gt;&lt;/span&gt;&lt;/div&gt;&lt;div style=&quot;&quot;&gt;&lt;span style=&quot;background-color: initial;&quot;&gt;&lt;b&gt;&lt;br&gt;&lt;/b&gt;&lt;/span&gt;&lt;/div&gt;&lt;div style=&quot;&quot;&gt;&lt;span style=&quot;background-color: initial;&quot;&gt;&lt;b&gt;Notes:&lt;/b&gt;&lt;/span&gt;&lt;/div&gt;&lt;div style=&quot;&quot;&gt;&lt;span style=&quot;background-color: initial;&quot;&gt;&lt;b&gt;&lt;br&gt;&lt;/b&gt;&lt;/span&gt;&lt;/div&gt;&lt;div style=&quot;&quot;&gt;&lt;span style=&quot;background-color: initial;&quot;&gt;&lt;b&gt;&lt;br&gt;&lt;/b&gt;&lt;/span&gt;&lt;/div&gt;&lt;div style=&quot;&quot;&gt;&lt;span style=&quot;background-color: initial;&quot;&gt;&lt;b&gt;&lt;br&gt;&lt;/b&gt;&lt;/span&gt;&lt;/div&gt;" style="rounded=0;whiteSpace=wrap;html=1;align=left;fillColor=#d5e8d4;strokeColor=#82b366;strokeWidth=2;" vertex="1" parent="1">
          <mxGeometry x="450" y="1229" width="390" height="280" as="geometry" />
        </mxCell>
        <mxCell id="im6uKeQKjoMlU5U68ikK-133" value="&lt;b&gt;Information:&amp;nbsp;&lt;/b&gt;&lt;br&gt;&lt;br&gt;&lt;b&gt;Trigger:&lt;/b&gt;&lt;br&gt;&lt;br&gt;&lt;br&gt;&lt;b&gt;Task:&lt;/b&gt;&lt;br&gt;&lt;br&gt;&lt;br&gt;&lt;b&gt;Test/Check:&lt;/b&gt;&lt;br&gt;&lt;br&gt;&lt;br&gt;&lt;div style=&quot;&quot;&gt;&lt;span style=&quot;background-color: initial;&quot;&gt;&lt;b&gt;Training:&lt;/b&gt;&lt;/span&gt;&lt;/div&gt;&lt;div style=&quot;&quot;&gt;&lt;span style=&quot;background-color: initial;&quot;&gt;&lt;b&gt;&lt;br&gt;&lt;/b&gt;&lt;/span&gt;&lt;/div&gt;&lt;div style=&quot;&quot;&gt;&lt;span style=&quot;background-color: initial;&quot;&gt;&lt;b&gt;&lt;br&gt;&lt;/b&gt;&lt;/span&gt;&lt;/div&gt;&lt;div style=&quot;&quot;&gt;&lt;span style=&quot;background-color: initial;&quot;&gt;&lt;b&gt;Notes:&lt;/b&gt;&lt;/span&gt;&lt;/div&gt;&lt;div style=&quot;&quot;&gt;&lt;span style=&quot;background-color: initial;&quot;&gt;&lt;b&gt;&lt;br&gt;&lt;/b&gt;&lt;/span&gt;&lt;/div&gt;&lt;div style=&quot;&quot;&gt;&lt;span style=&quot;background-color: initial;&quot;&gt;&lt;b&gt;&lt;br&gt;&lt;/b&gt;&lt;/span&gt;&lt;/div&gt;&lt;div style=&quot;&quot;&gt;&lt;span style=&quot;background-color: initial;&quot;&gt;&lt;b&gt;&lt;br&gt;&lt;/b&gt;&lt;/span&gt;&lt;/div&gt;" style="rounded=0;whiteSpace=wrap;html=1;align=left;fillColor=#f8cecc;strokeColor=#b85450;strokeWidth=3;" vertex="1" parent="1">
          <mxGeometry x="1070" y="1229" width="390" height="280" as="geometry" />
        </mxCell>
        <mxCell id="im6uKeQKjoMlU5U68ikK-134" value="&lt;p style=&quot;line-height: 120%;&quot;&gt;&lt;b&gt;Media:&amp;nbsp;&lt;br&gt;&lt;br&gt;Media description:&lt;br&gt;&lt;br&gt;Media resources:&lt;br&gt;&lt;br&gt;&lt;br&gt;Task:&lt;br&gt;&lt;br&gt;Task description:&lt;br&gt;&lt;br&gt;&lt;br&gt;Task resources:&lt;br&gt;&lt;br&gt;&lt;br&gt;Training:&amp;nbsp;&lt;br&gt;&lt;br&gt;Training description:&lt;br&gt;&lt;br&gt;&lt;br&gt;Training resources:&lt;br&gt;&lt;br&gt;&lt;/b&gt;&lt;/p&gt;" style="rounded=0;whiteSpace=wrap;html=1;align=left;fillColor=#f8cecc;strokeColor=#b85450;" vertex="1" parent="1">
          <mxGeometry x="1123" y="1169" width="390" height="400" as="geometry" />
        </mxCell>
        <mxCell id="im6uKeQKjoMlU5U68ikK-135" value="&lt;p style=&quot;line-height: 120%;&quot;&gt;&lt;b&gt;Media:&amp;nbsp;&lt;br&gt;&lt;br&gt;Media description:&lt;br&gt;&lt;br&gt;Media resources:&lt;br&gt;&lt;br&gt;&lt;br&gt;Task:&lt;br&gt;&lt;br&gt;Task description:&lt;br&gt;&lt;br&gt;&lt;br&gt;Task resources:&lt;br&gt;&lt;br&gt;&lt;br&gt;Training:&amp;nbsp;&lt;br&gt;&lt;br&gt;Training description:&lt;br&gt;&lt;br&gt;&lt;br&gt;Training resources:&lt;br&gt;&lt;br&gt;&lt;/b&gt;&lt;/p&gt;" style="rounded=0;whiteSpace=wrap;html=1;align=left;fillColor=#d5e8d4;strokeColor=#82b366;" vertex="1" parent="1">
          <mxGeometry x="512" y="1169" width="390" height="400" as="geometry" />
        </mxCell>
        <mxCell id="im6uKeQKjoMlU5U68ikK-136" value="&lt;b&gt;Information:&amp;nbsp;&lt;/b&gt;&lt;br&gt;&lt;br&gt;&lt;b&gt;Trigger:&lt;/b&gt;&lt;br&gt;&lt;br&gt;&lt;br&gt;&lt;b&gt;Task:&lt;/b&gt;&lt;br&gt;&lt;br&gt;&lt;br&gt;&lt;b&gt;Test/Check:&lt;/b&gt;&lt;br&gt;&lt;br&gt;&lt;br&gt;&lt;div style=&quot;&quot;&gt;&lt;span style=&quot;background-color: initial;&quot;&gt;&lt;b&gt;Training:&lt;/b&gt;&lt;/span&gt;&lt;/div&gt;&lt;div style=&quot;&quot;&gt;&lt;span style=&quot;background-color: initial;&quot;&gt;&lt;b&gt;&lt;br&gt;&lt;/b&gt;&lt;/span&gt;&lt;/div&gt;&lt;div style=&quot;&quot;&gt;&lt;span style=&quot;background-color: initial;&quot;&gt;&lt;b&gt;&lt;br&gt;&lt;/b&gt;&lt;/span&gt;&lt;/div&gt;&lt;div style=&quot;&quot;&gt;&lt;span style=&quot;background-color: initial;&quot;&gt;&lt;b&gt;Notes:&lt;/b&gt;&lt;/span&gt;&lt;/div&gt;&lt;div style=&quot;&quot;&gt;&lt;span style=&quot;background-color: initial;&quot;&gt;&lt;b&gt;&lt;br&gt;&lt;/b&gt;&lt;/span&gt;&lt;/div&gt;&lt;div style=&quot;&quot;&gt;&lt;span style=&quot;background-color: initial;&quot;&gt;&lt;b&gt;&lt;br&gt;&lt;/b&gt;&lt;/span&gt;&lt;/div&gt;&lt;div style=&quot;&quot;&gt;&lt;span style=&quot;background-color: initial;&quot;&gt;&lt;b&gt;&lt;br&gt;&lt;/b&gt;&lt;/span&gt;&lt;/div&gt;" style="rounded=0;whiteSpace=wrap;html=1;align=left;fillColor=#dae8fc;strokeColor=#6c8ebf;strokeWidth=3;" vertex="1" parent="1">
          <mxGeometry x="-163" y="1811" width="390" height="280" as="geometry" />
        </mxCell>
        <mxCell id="im6uKeQKjoMlU5U68ikK-137" value="&lt;p style=&quot;line-height: 120%;&quot;&gt;&lt;b&gt;Media:&amp;nbsp;&lt;br&gt;&lt;br&gt;Media description:&lt;br&gt;&lt;br&gt;Media resources:&lt;br&gt;&lt;br&gt;&lt;br&gt;Task:&lt;br&gt;&lt;br&gt;Task description:&lt;br&gt;&lt;br&gt;&lt;br&gt;Task resources:&lt;br&gt;&lt;br&gt;&lt;br&gt;Training:&amp;nbsp;&lt;br&gt;&lt;br&gt;Training description:&lt;br&gt;&lt;br&gt;&lt;br&gt;Training resources:&lt;br&gt;&lt;br&gt;&lt;/b&gt;&lt;/p&gt;" style="rounded=0;whiteSpace=wrap;html=1;align=left;fillColor=#dae8fc;strokeColor=#6c8ebf;" vertex="1" parent="1">
          <mxGeometry x="-103" y="1751" width="390" height="400" as="geometry" />
        </mxCell>
        <mxCell id="im6uKeQKjoMlU5U68ikK-138" value="&lt;b&gt;Information:&amp;nbsp;&lt;/b&gt;&lt;br&gt;&lt;br&gt;&lt;b&gt;Trigger:&lt;/b&gt;&lt;br&gt;&lt;br&gt;&lt;br&gt;&lt;b&gt;Task:&lt;/b&gt;&lt;br&gt;&lt;br&gt;&lt;br&gt;&lt;b&gt;Test/Check:&lt;/b&gt;&lt;br&gt;&lt;br&gt;&lt;br&gt;&lt;div style=&quot;&quot;&gt;&lt;span style=&quot;background-color: initial;&quot;&gt;&lt;b&gt;Training:&lt;/b&gt;&lt;/span&gt;&lt;/div&gt;&lt;div style=&quot;&quot;&gt;&lt;span style=&quot;background-color: initial;&quot;&gt;&lt;b&gt;&lt;br&gt;&lt;/b&gt;&lt;/span&gt;&lt;/div&gt;&lt;div style=&quot;&quot;&gt;&lt;span style=&quot;background-color: initial;&quot;&gt;&lt;b&gt;&lt;br&gt;&lt;/b&gt;&lt;/span&gt;&lt;/div&gt;&lt;div style=&quot;&quot;&gt;&lt;span style=&quot;background-color: initial;&quot;&gt;&lt;b&gt;Notes:&lt;/b&gt;&lt;/span&gt;&lt;/div&gt;&lt;div style=&quot;&quot;&gt;&lt;span style=&quot;background-color: initial;&quot;&gt;&lt;b&gt;&lt;br&gt;&lt;/b&gt;&lt;/span&gt;&lt;/div&gt;&lt;div style=&quot;&quot;&gt;&lt;span style=&quot;background-color: initial;&quot;&gt;&lt;b&gt;&lt;br&gt;&lt;/b&gt;&lt;/span&gt;&lt;/div&gt;&lt;div style=&quot;&quot;&gt;&lt;span style=&quot;background-color: initial;&quot;&gt;&lt;b&gt;&lt;br&gt;&lt;/b&gt;&lt;/span&gt;&lt;/div&gt;" style="rounded=0;whiteSpace=wrap;html=1;align=left;fillColor=#d5e8d4;strokeColor=#82b366;strokeWidth=2;" vertex="1" parent="1">
          <mxGeometry x="450" y="1811" width="390" height="280" as="geometry" />
        </mxCell>
        <mxCell id="im6uKeQKjoMlU5U68ikK-139" value="&lt;b&gt;Information:&amp;nbsp;&lt;/b&gt;&lt;br&gt;&lt;br&gt;&lt;b&gt;Trigger:&lt;/b&gt;&lt;br&gt;&lt;br&gt;&lt;br&gt;&lt;b&gt;Task:&lt;/b&gt;&lt;br&gt;&lt;br&gt;&lt;br&gt;&lt;b&gt;Test/Check:&lt;/b&gt;&lt;br&gt;&lt;br&gt;&lt;br&gt;&lt;div style=&quot;&quot;&gt;&lt;span style=&quot;background-color: initial;&quot;&gt;&lt;b&gt;Training:&lt;/b&gt;&lt;/span&gt;&lt;/div&gt;&lt;div style=&quot;&quot;&gt;&lt;span style=&quot;background-color: initial;&quot;&gt;&lt;b&gt;&lt;br&gt;&lt;/b&gt;&lt;/span&gt;&lt;/div&gt;&lt;div style=&quot;&quot;&gt;&lt;span style=&quot;background-color: initial;&quot;&gt;&lt;b&gt;&lt;br&gt;&lt;/b&gt;&lt;/span&gt;&lt;/div&gt;&lt;div style=&quot;&quot;&gt;&lt;span style=&quot;background-color: initial;&quot;&gt;&lt;b&gt;Notes:&lt;/b&gt;&lt;/span&gt;&lt;/div&gt;&lt;div style=&quot;&quot;&gt;&lt;span style=&quot;background-color: initial;&quot;&gt;&lt;b&gt;&lt;br&gt;&lt;/b&gt;&lt;/span&gt;&lt;/div&gt;&lt;div style=&quot;&quot;&gt;&lt;span style=&quot;background-color: initial;&quot;&gt;&lt;b&gt;&lt;br&gt;&lt;/b&gt;&lt;/span&gt;&lt;/div&gt;&lt;div style=&quot;&quot;&gt;&lt;span style=&quot;background-color: initial;&quot;&gt;&lt;b&gt;&lt;br&gt;&lt;/b&gt;&lt;/span&gt;&lt;/div&gt;" style="rounded=0;whiteSpace=wrap;html=1;align=left;fillColor=#f8cecc;strokeColor=#b85450;strokeWidth=3;" vertex="1" parent="1">
          <mxGeometry x="1070" y="1811" width="390" height="280" as="geometry" />
        </mxCell>
        <mxCell id="im6uKeQKjoMlU5U68ikK-140" value="&lt;p style=&quot;line-height: 120%;&quot;&gt;&lt;b&gt;Media:&amp;nbsp;&lt;br&gt;&lt;br&gt;Media description:&lt;br&gt;&lt;br&gt;Media resources:&lt;br&gt;&lt;br&gt;&lt;br&gt;Task:&lt;br&gt;&lt;br&gt;Task description:&lt;br&gt;&lt;br&gt;&lt;br&gt;Task resources:&lt;br&gt;&lt;br&gt;&lt;br&gt;Training:&amp;nbsp;&lt;br&gt;&lt;br&gt;Training description:&lt;br&gt;&lt;br&gt;&lt;br&gt;Training resources:&lt;br&gt;&lt;br&gt;&lt;/b&gt;&lt;/p&gt;" style="rounded=0;whiteSpace=wrap;html=1;align=left;fillColor=#f8cecc;strokeColor=#b85450;" vertex="1" parent="1">
          <mxGeometry x="1123" y="1751" width="390" height="400" as="geometry" />
        </mxCell>
        <mxCell id="im6uKeQKjoMlU5U68ikK-141" value="&lt;p style=&quot;line-height: 120%;&quot;&gt;&lt;b&gt;Media:&amp;nbsp;&lt;br&gt;&lt;br&gt;Media description:&lt;br&gt;&lt;br&gt;Media resources:&lt;br&gt;&lt;br&gt;&lt;br&gt;Task:&lt;br&gt;&lt;br&gt;Task description:&lt;br&gt;&lt;br&gt;&lt;br&gt;Task resources:&lt;br&gt;&lt;br&gt;&lt;br&gt;Training:&amp;nbsp;&lt;br&gt;&lt;br&gt;Training description:&lt;br&gt;&lt;br&gt;&lt;br&gt;Training resources:&lt;br&gt;&lt;br&gt;&lt;/b&gt;&lt;/p&gt;" style="rounded=0;whiteSpace=wrap;html=1;align=left;fillColor=#d5e8d4;strokeColor=#82b366;" vertex="1" parent="1">
          <mxGeometry x="512" y="1751" width="390" height="400" as="geometry" />
        </mxCell>
        <mxCell id="im6uKeQKjoMlU5U68ikK-143" value="&lt;span style=&quot;font-size: 14px;&quot;&gt;&lt;b&gt;Event 5&lt;/b&gt;&lt;/span&gt;" style="rounded=0;whiteSpace=wrap;html=1;fillColor=#e1d5e7;strokeColor=#9673a6;" vertex="1" parent="1">
          <mxGeometry x="-390" y="1910" width="120" height="60" as="geometry" />
        </mxCell>
        <mxCell id="im6uKeQKjoMlU5U68ikK-144" value="&lt;b style=&quot;&quot;&gt;&lt;font style=&quot;font-size: 34px;&quot;&gt;Virtual Placement Storyboarding&lt;/font&gt;&lt;/b&gt;" style="rounded=0;whiteSpace=wrap;html=1;" vertex="1" parent="1">
          <mxGeometry x="303.5" y="-1210" width="770" height="60" as="geometry" />
        </mxCell>
        <mxCell id="im6uKeQKjoMlU5U68ikK-145" value="&lt;b&gt;Information:&amp;nbsp;&lt;/b&gt;&lt;br&gt;&lt;br&gt;&lt;b&gt;Trigger:&lt;/b&gt;&lt;br&gt;&lt;br&gt;&lt;br&gt;&lt;b&gt;Task:&lt;/b&gt;&lt;br&gt;&lt;br&gt;&lt;br&gt;&lt;b&gt;Test/Check:&lt;/b&gt;&lt;br&gt;&lt;br&gt;&lt;br&gt;&lt;div style=&quot;&quot;&gt;&lt;span style=&quot;background-color: initial;&quot;&gt;&lt;b&gt;Training:&lt;/b&gt;&lt;/span&gt;&lt;/div&gt;&lt;div style=&quot;&quot;&gt;&lt;span style=&quot;background-color: initial;&quot;&gt;&lt;b&gt;&lt;br&gt;&lt;/b&gt;&lt;/span&gt;&lt;/div&gt;&lt;div style=&quot;&quot;&gt;&lt;span style=&quot;background-color: initial;&quot;&gt;&lt;b&gt;&lt;br&gt;&lt;/b&gt;&lt;/span&gt;&lt;/div&gt;&lt;div style=&quot;&quot;&gt;&lt;span style=&quot;background-color: initial;&quot;&gt;&lt;b&gt;Notes:&lt;/b&gt;&lt;/span&gt;&lt;/div&gt;&lt;div style=&quot;&quot;&gt;&lt;span style=&quot;background-color: initial;&quot;&gt;&lt;b&gt;&lt;br&gt;&lt;/b&gt;&lt;/span&gt;&lt;/div&gt;&lt;div style=&quot;&quot;&gt;&lt;span style=&quot;background-color: initial;&quot;&gt;&lt;b&gt;&lt;br&gt;&lt;/b&gt;&lt;/span&gt;&lt;/div&gt;&lt;div style=&quot;&quot;&gt;&lt;span style=&quot;background-color: initial;&quot;&gt;&lt;b&gt;&lt;br&gt;&lt;/b&gt;&lt;/span&gt;&lt;/div&gt;" style="rounded=0;whiteSpace=wrap;html=1;align=left;fillColor=#dae8fc;strokeColor=#6c8ebf;strokeWidth=3;" vertex="1" parent="1">
          <mxGeometry x="4700" y="-830" width="390" height="280" as="geometry" />
        </mxCell>
        <mxCell id="im6uKeQKjoMlU5U68ikK-146" value="Text" style="text;html=1;align=center;verticalAlign=middle;resizable=0;points=[];autosize=1;strokeColor=none;fillColor=none;" vertex="1" parent="1">
          <mxGeometry x="6248" y="320" width="50" height="30" as="geometry" />
        </mxCell>
        <mxCell id="im6uKeQKjoMlU5U68ikK-147" value="&lt;b&gt;&lt;font style=&quot;font-size: 14px;&quot;&gt;Start&amp;nbsp;&lt;/font&gt;&lt;/b&gt;" style="rounded=0;whiteSpace=wrap;html=1;" vertex="1" parent="1">
          <mxGeometry x="4500" y="-1080" width="120" height="60" as="geometry" />
        </mxCell>
        <mxCell id="im6uKeQKjoMlU5U68ikK-148" value="&lt;b&gt;&lt;font style=&quot;font-size: 14px;&quot;&gt;Session 1&lt;/font&gt;&lt;/b&gt;" style="rounded=0;whiteSpace=wrap;html=1;fillColor=#e1d5e7;strokeColor=#9673a6;" vertex="1" parent="1">
          <mxGeometry x="4500" y="-740" width="120" height="60" as="geometry" />
        </mxCell>
        <mxCell id="im6uKeQKjoMlU5U68ikK-149" value="&lt;b&gt;&lt;font style=&quot;font-size: 14px;&quot;&gt;Follow up 4&lt;/font&gt;&lt;/b&gt;" style="rounded=0;whiteSpace=wrap;html=1;fillColor=#e1d5e7;strokeColor=#9673a6;" vertex="1" parent="1">
          <mxGeometry x="4500" y="1430" width="120" height="60" as="geometry" />
        </mxCell>
        <mxCell id="im6uKeQKjoMlU5U68ikK-150" value="&lt;b&gt;&lt;font style=&quot;font-size: 14px;&quot;&gt;Follow up 3&lt;/font&gt;&lt;/b&gt;" style="rounded=0;whiteSpace=wrap;html=1;fillColor=#e1d5e7;strokeColor=#9673a6;" vertex="1" parent="1">
          <mxGeometry x="4500" y="910" width="120" height="60" as="geometry" />
        </mxCell>
        <mxCell id="im6uKeQKjoMlU5U68ikK-151" value="&lt;b&gt;&lt;font style=&quot;font-size: 14px;&quot;&gt;Follow up 2&lt;/font&gt;&lt;/b&gt;" style="rounded=0;whiteSpace=wrap;html=1;fillColor=#e1d5e7;strokeColor=#9673a6;" vertex="1" parent="1">
          <mxGeometry x="4520" y="340" width="120" height="60" as="geometry" />
        </mxCell>
        <mxCell id="im6uKeQKjoMlU5U68ikK-152" value="&lt;b&gt;&lt;font style=&quot;font-size: 14px;&quot;&gt;Follow up 1&lt;/font&gt;&lt;/b&gt;" style="rounded=0;whiteSpace=wrap;html=1;fillColor=#e1d5e7;strokeColor=#9673a6;" vertex="1" parent="1">
          <mxGeometry x="4510" y="-210" width="120" height="60" as="geometry" />
        </mxCell>
        <mxCell id="im6uKeQKjoMlU5U68ikK-153" value="&lt;p style=&quot;line-height: 120%;&quot;&gt;&lt;b&gt;Media:&amp;nbsp;&lt;br&gt;&lt;br&gt;Media description:&lt;br&gt;&lt;br&gt;Media resources:&lt;br&gt;&lt;br&gt;&lt;br&gt;Task:&lt;br&gt;&lt;br&gt;Task description:&lt;br&gt;&lt;br&gt;&lt;br&gt;Task resources:&lt;br&gt;&lt;br&gt;&lt;br&gt;Training:&amp;nbsp;&lt;br&gt;&lt;br&gt;Training description:&lt;br&gt;&lt;br&gt;&lt;br&gt;Training resources:&lt;br&gt;&lt;br&gt;&lt;/b&gt;&lt;/p&gt;" style="rounded=0;whiteSpace=wrap;html=1;align=left;fillColor=#dae8fc;strokeColor=#6c8ebf;" vertex="1" parent="1">
          <mxGeometry x="4760" y="-890" width="390" height="400" as="geometry" />
        </mxCell>
        <mxCell id="im6uKeQKjoMlU5U68ikK-154" value="&lt;b&gt;Information:&amp;nbsp;&lt;/b&gt;&lt;br&gt;&lt;br&gt;&lt;b&gt;Trigger:&lt;/b&gt;&lt;br&gt;&lt;br&gt;&lt;br&gt;&lt;b&gt;Task:&lt;/b&gt;&lt;br&gt;&lt;br&gt;&lt;br&gt;&lt;b&gt;Test/Check:&lt;/b&gt;&lt;br&gt;&lt;br&gt;&lt;br&gt;&lt;div style=&quot;&quot;&gt;&lt;span style=&quot;background-color: initial;&quot;&gt;&lt;b&gt;Training:&lt;/b&gt;&lt;/span&gt;&lt;/div&gt;&lt;div style=&quot;&quot;&gt;&lt;span style=&quot;background-color: initial;&quot;&gt;&lt;b&gt;&lt;br&gt;&lt;/b&gt;&lt;/span&gt;&lt;/div&gt;&lt;div style=&quot;&quot;&gt;&lt;span style=&quot;background-color: initial;&quot;&gt;&lt;b&gt;&lt;br&gt;&lt;/b&gt;&lt;/span&gt;&lt;/div&gt;&lt;div style=&quot;&quot;&gt;&lt;span style=&quot;background-color: initial;&quot;&gt;&lt;b&gt;Notes:&lt;/b&gt;&lt;/span&gt;&lt;/div&gt;&lt;div style=&quot;&quot;&gt;&lt;span style=&quot;background-color: initial;&quot;&gt;&lt;b&gt;&lt;br&gt;&lt;/b&gt;&lt;/span&gt;&lt;/div&gt;&lt;div style=&quot;&quot;&gt;&lt;span style=&quot;background-color: initial;&quot;&gt;&lt;b&gt;&lt;br&gt;&lt;/b&gt;&lt;/span&gt;&lt;/div&gt;&lt;div style=&quot;&quot;&gt;&lt;span style=&quot;background-color: initial;&quot;&gt;&lt;b&gt;&lt;br&gt;&lt;/b&gt;&lt;/span&gt;&lt;/div&gt;" style="rounded=0;whiteSpace=wrap;html=1;align=left;fillColor=#d5e8d4;strokeColor=#82b366;strokeWidth=2;" vertex="1" parent="1">
          <mxGeometry x="5313" y="-830" width="390" height="280" as="geometry" />
        </mxCell>
        <mxCell id="im6uKeQKjoMlU5U68ikK-155" value="&lt;b&gt;Information:&amp;nbsp;&lt;/b&gt;&lt;br&gt;&lt;br&gt;&lt;b&gt;Trigger:&lt;/b&gt;&lt;br&gt;&lt;br&gt;&lt;br&gt;&lt;b&gt;Task:&lt;/b&gt;&lt;br&gt;&lt;br&gt;&lt;br&gt;&lt;b&gt;Test/Check:&lt;/b&gt;&lt;br&gt;&lt;br&gt;&lt;br&gt;&lt;div style=&quot;&quot;&gt;&lt;span style=&quot;background-color: initial;&quot;&gt;&lt;b&gt;Training:&lt;/b&gt;&lt;/span&gt;&lt;/div&gt;&lt;div style=&quot;&quot;&gt;&lt;span style=&quot;background-color: initial;&quot;&gt;&lt;b&gt;&lt;br&gt;&lt;/b&gt;&lt;/span&gt;&lt;/div&gt;&lt;div style=&quot;&quot;&gt;&lt;span style=&quot;background-color: initial;&quot;&gt;&lt;b&gt;&lt;br&gt;&lt;/b&gt;&lt;/span&gt;&lt;/div&gt;&lt;div style=&quot;&quot;&gt;&lt;span style=&quot;background-color: initial;&quot;&gt;&lt;b&gt;Notes:&lt;/b&gt;&lt;/span&gt;&lt;/div&gt;&lt;div style=&quot;&quot;&gt;&lt;span style=&quot;background-color: initial;&quot;&gt;&lt;b&gt;&lt;br&gt;&lt;/b&gt;&lt;/span&gt;&lt;/div&gt;&lt;div style=&quot;&quot;&gt;&lt;span style=&quot;background-color: initial;&quot;&gt;&lt;b&gt;&lt;br&gt;&lt;/b&gt;&lt;/span&gt;&lt;/div&gt;&lt;div style=&quot;&quot;&gt;&lt;span style=&quot;background-color: initial;&quot;&gt;&lt;b&gt;&lt;br&gt;&lt;/b&gt;&lt;/span&gt;&lt;/div&gt;" style="rounded=0;whiteSpace=wrap;html=1;align=left;fillColor=#f8cecc;strokeColor=#b85450;strokeWidth=3;" vertex="1" parent="1">
          <mxGeometry x="5933" y="-830" width="390" height="280" as="geometry" />
        </mxCell>
        <mxCell id="im6uKeQKjoMlU5U68ikK-156" value="&lt;p style=&quot;line-height: 120%;&quot;&gt;&lt;b&gt;Media:&amp;nbsp;&lt;br&gt;&lt;br&gt;Media description:&lt;br&gt;&lt;br&gt;Media resources:&lt;br&gt;&lt;br&gt;&lt;br&gt;Task:&lt;br&gt;&lt;br&gt;Task description:&lt;br&gt;&lt;br&gt;&lt;br&gt;Task resources:&lt;br&gt;&lt;br&gt;&lt;br&gt;Training:&amp;nbsp;&lt;br&gt;&lt;br&gt;Training description:&lt;br&gt;&lt;br&gt;&lt;br&gt;Training resources:&lt;br&gt;&lt;br&gt;&lt;/b&gt;&lt;/p&gt;" style="rounded=0;whiteSpace=wrap;html=1;align=left;fillColor=#f8cecc;strokeColor=#b85450;" vertex="1" parent="1">
          <mxGeometry x="5986" y="-890" width="390" height="400" as="geometry" />
        </mxCell>
        <mxCell id="im6uKeQKjoMlU5U68ikK-157" value="&lt;p style=&quot;line-height: 120%;&quot;&gt;&lt;b&gt;Media:&amp;nbsp;&lt;br&gt;&lt;br&gt;Media description:&lt;br&gt;&lt;br&gt;Media resources:&lt;br&gt;&lt;br&gt;&lt;br&gt;Task:&lt;br&gt;&lt;br&gt;Task description:&lt;br&gt;&lt;br&gt;&lt;br&gt;Task resources:&lt;br&gt;&lt;br&gt;&lt;br&gt;Training:&amp;nbsp;&lt;br&gt;&lt;br&gt;Training description:&lt;br&gt;&lt;br&gt;&lt;br&gt;Training resources:&lt;br&gt;&lt;br&gt;&lt;/b&gt;&lt;/p&gt;" style="rounded=0;whiteSpace=wrap;html=1;align=left;fillColor=#d5e8d4;strokeColor=#82b366;" vertex="1" parent="1">
          <mxGeometry x="5375" y="-890" width="390" height="400" as="geometry" />
        </mxCell>
        <mxCell id="im6uKeQKjoMlU5U68ikK-158" value="&lt;b&gt;Information:&amp;nbsp;&lt;/b&gt;&lt;br&gt;&lt;br&gt;&lt;b&gt;Trigger:&lt;/b&gt;&lt;br&gt;&lt;br&gt;&lt;br&gt;&lt;b&gt;Task:&lt;/b&gt;&lt;br&gt;&lt;br&gt;&lt;br&gt;&lt;b&gt;Test/Check:&lt;/b&gt;&lt;br&gt;&lt;br&gt;&lt;br&gt;&lt;div style=&quot;&quot;&gt;&lt;span style=&quot;background-color: initial;&quot;&gt;&lt;b&gt;Training:&lt;/b&gt;&lt;/span&gt;&lt;/div&gt;&lt;div style=&quot;&quot;&gt;&lt;span style=&quot;background-color: initial;&quot;&gt;&lt;b&gt;&lt;br&gt;&lt;/b&gt;&lt;/span&gt;&lt;/div&gt;&lt;div style=&quot;&quot;&gt;&lt;span style=&quot;background-color: initial;&quot;&gt;&lt;b&gt;&lt;br&gt;&lt;/b&gt;&lt;/span&gt;&lt;/div&gt;&lt;div style=&quot;&quot;&gt;&lt;span style=&quot;background-color: initial;&quot;&gt;&lt;b&gt;Notes:&lt;/b&gt;&lt;/span&gt;&lt;/div&gt;&lt;div style=&quot;&quot;&gt;&lt;span style=&quot;background-color: initial;&quot;&gt;&lt;b&gt;&lt;br&gt;&lt;/b&gt;&lt;/span&gt;&lt;/div&gt;&lt;div style=&quot;&quot;&gt;&lt;span style=&quot;background-color: initial;&quot;&gt;&lt;b&gt;&lt;br&gt;&lt;/b&gt;&lt;/span&gt;&lt;/div&gt;&lt;div style=&quot;&quot;&gt;&lt;span style=&quot;background-color: initial;&quot;&gt;&lt;b&gt;&lt;br&gt;&lt;/b&gt;&lt;/span&gt;&lt;/div&gt;" style="rounded=0;whiteSpace=wrap;html=1;align=left;fillColor=#dae8fc;strokeColor=#6c8ebf;strokeWidth=3;" vertex="1" parent="1">
          <mxGeometry x="4700" y="-300" width="390" height="280" as="geometry" />
        </mxCell>
        <mxCell id="im6uKeQKjoMlU5U68ikK-159" value="&lt;p style=&quot;line-height: 120%;&quot;&gt;&lt;b&gt;Media:&amp;nbsp;&lt;br&gt;&lt;br&gt;Media description:&lt;br&gt;&lt;br&gt;Media resources:&lt;br&gt;&lt;br&gt;&lt;br&gt;Task:&lt;br&gt;&lt;br&gt;Task description:&lt;br&gt;&lt;br&gt;&lt;br&gt;Task resources:&lt;br&gt;&lt;br&gt;&lt;br&gt;Training:&amp;nbsp;&lt;br&gt;&lt;br&gt;Training description:&lt;br&gt;&lt;br&gt;&lt;br&gt;Training resources:&lt;br&gt;&lt;br&gt;&lt;/b&gt;&lt;/p&gt;" style="rounded=0;whiteSpace=wrap;html=1;align=left;fillColor=#dae8fc;strokeColor=#6c8ebf;" vertex="1" parent="1">
          <mxGeometry x="4760" y="-360" width="390" height="400" as="geometry" />
        </mxCell>
        <mxCell id="im6uKeQKjoMlU5U68ikK-160" value="&lt;b&gt;Information:&amp;nbsp;&lt;/b&gt;&lt;br&gt;&lt;br&gt;&lt;b&gt;Trigger:&lt;/b&gt;&lt;br&gt;&lt;br&gt;&lt;br&gt;&lt;b&gt;Task:&lt;/b&gt;&lt;br&gt;&lt;br&gt;&lt;br&gt;&lt;b&gt;Test/Check:&lt;/b&gt;&lt;br&gt;&lt;br&gt;&lt;br&gt;&lt;div style=&quot;&quot;&gt;&lt;span style=&quot;background-color: initial;&quot;&gt;&lt;b&gt;Training:&lt;/b&gt;&lt;/span&gt;&lt;/div&gt;&lt;div style=&quot;&quot;&gt;&lt;span style=&quot;background-color: initial;&quot;&gt;&lt;b&gt;&lt;br&gt;&lt;/b&gt;&lt;/span&gt;&lt;/div&gt;&lt;div style=&quot;&quot;&gt;&lt;span style=&quot;background-color: initial;&quot;&gt;&lt;b&gt;&lt;br&gt;&lt;/b&gt;&lt;/span&gt;&lt;/div&gt;&lt;div style=&quot;&quot;&gt;&lt;span style=&quot;background-color: initial;&quot;&gt;&lt;b&gt;Notes:&lt;/b&gt;&lt;/span&gt;&lt;/div&gt;&lt;div style=&quot;&quot;&gt;&lt;span style=&quot;background-color: initial;&quot;&gt;&lt;b&gt;&lt;br&gt;&lt;/b&gt;&lt;/span&gt;&lt;/div&gt;&lt;div style=&quot;&quot;&gt;&lt;span style=&quot;background-color: initial;&quot;&gt;&lt;b&gt;&lt;br&gt;&lt;/b&gt;&lt;/span&gt;&lt;/div&gt;&lt;div style=&quot;&quot;&gt;&lt;span style=&quot;background-color: initial;&quot;&gt;&lt;b&gt;&lt;br&gt;&lt;/b&gt;&lt;/span&gt;&lt;/div&gt;" style="rounded=0;whiteSpace=wrap;html=1;align=left;fillColor=#d5e8d4;strokeColor=#82b366;strokeWidth=2;" vertex="1" parent="1">
          <mxGeometry x="5313" y="-300" width="390" height="280" as="geometry" />
        </mxCell>
        <mxCell id="im6uKeQKjoMlU5U68ikK-161" value="&lt;b&gt;Information:&amp;nbsp;&lt;/b&gt;&lt;br&gt;&lt;br&gt;&lt;b&gt;Trigger:&lt;/b&gt;&lt;br&gt;&lt;br&gt;&lt;br&gt;&lt;b&gt;Task:&lt;/b&gt;&lt;br&gt;&lt;br&gt;&lt;br&gt;&lt;b&gt;Test/Check:&lt;/b&gt;&lt;br&gt;&lt;br&gt;&lt;br&gt;&lt;div style=&quot;&quot;&gt;&lt;span style=&quot;background-color: initial;&quot;&gt;&lt;b&gt;Training:&lt;/b&gt;&lt;/span&gt;&lt;/div&gt;&lt;div style=&quot;&quot;&gt;&lt;span style=&quot;background-color: initial;&quot;&gt;&lt;b&gt;&lt;br&gt;&lt;/b&gt;&lt;/span&gt;&lt;/div&gt;&lt;div style=&quot;&quot;&gt;&lt;span style=&quot;background-color: initial;&quot;&gt;&lt;b&gt;&lt;br&gt;&lt;/b&gt;&lt;/span&gt;&lt;/div&gt;&lt;div style=&quot;&quot;&gt;&lt;span style=&quot;background-color: initial;&quot;&gt;&lt;b&gt;Notes:&lt;/b&gt;&lt;/span&gt;&lt;/div&gt;&lt;div style=&quot;&quot;&gt;&lt;span style=&quot;background-color: initial;&quot;&gt;&lt;b&gt;&lt;br&gt;&lt;/b&gt;&lt;/span&gt;&lt;/div&gt;&lt;div style=&quot;&quot;&gt;&lt;span style=&quot;background-color: initial;&quot;&gt;&lt;b&gt;&lt;br&gt;&lt;/b&gt;&lt;/span&gt;&lt;/div&gt;&lt;div style=&quot;&quot;&gt;&lt;span style=&quot;background-color: initial;&quot;&gt;&lt;b&gt;&lt;br&gt;&lt;/b&gt;&lt;/span&gt;&lt;/div&gt;" style="rounded=0;whiteSpace=wrap;html=1;align=left;fillColor=#f8cecc;strokeColor=#b85450;strokeWidth=3;" vertex="1" parent="1">
          <mxGeometry x="5933" y="-300" width="390" height="280" as="geometry" />
        </mxCell>
        <mxCell id="im6uKeQKjoMlU5U68ikK-162" value="&lt;p style=&quot;line-height: 120%;&quot;&gt;&lt;b&gt;Media:&amp;nbsp;&lt;br&gt;&lt;br&gt;Media description:&lt;br&gt;&lt;br&gt;Media resources:&lt;br&gt;&lt;br&gt;&lt;br&gt;Task:&lt;br&gt;&lt;br&gt;Task description:&lt;br&gt;&lt;br&gt;&lt;br&gt;Task resources:&lt;br&gt;&lt;br&gt;&lt;br&gt;Training:&amp;nbsp;&lt;br&gt;&lt;br&gt;Training description:&lt;br&gt;&lt;br&gt;&lt;br&gt;Training resources:&lt;br&gt;&lt;br&gt;&lt;/b&gt;&lt;/p&gt;" style="rounded=0;whiteSpace=wrap;html=1;align=left;fillColor=#f8cecc;strokeColor=#b85450;" vertex="1" parent="1">
          <mxGeometry x="5986" y="-360" width="390" height="400" as="geometry" />
        </mxCell>
        <mxCell id="im6uKeQKjoMlU5U68ikK-163" value="&lt;p style=&quot;line-height: 120%;&quot;&gt;&lt;b&gt;Media:&amp;nbsp;&lt;br&gt;&lt;br&gt;Media description:&lt;br&gt;&lt;br&gt;Media resources:&lt;br&gt;&lt;br&gt;&lt;br&gt;Task:&lt;br&gt;&lt;br&gt;Task description:&lt;br&gt;&lt;br&gt;&lt;br&gt;Task resources:&lt;br&gt;&lt;br&gt;&lt;br&gt;Training:&amp;nbsp;&lt;br&gt;&lt;br&gt;Training description:&lt;br&gt;&lt;br&gt;&lt;br&gt;Training resources:&lt;br&gt;&lt;br&gt;&lt;/b&gt;&lt;/p&gt;" style="rounded=0;whiteSpace=wrap;html=1;align=left;fillColor=#d5e8d4;strokeColor=#82b366;" vertex="1" parent="1">
          <mxGeometry x="5375" y="-360" width="390" height="400" as="geometry" />
        </mxCell>
        <mxCell id="im6uKeQKjoMlU5U68ikK-164" value="&lt;b&gt;Information:&amp;nbsp;&lt;/b&gt;&lt;br&gt;&lt;br&gt;&lt;b&gt;Trigger:&lt;/b&gt;&lt;br&gt;&lt;br&gt;&lt;br&gt;&lt;b&gt;Task:&lt;/b&gt;&lt;br&gt;&lt;br&gt;&lt;br&gt;&lt;b&gt;Test/Check:&lt;/b&gt;&lt;br&gt;&lt;br&gt;&lt;br&gt;&lt;div style=&quot;&quot;&gt;&lt;span style=&quot;background-color: initial;&quot;&gt;&lt;b&gt;Training:&lt;/b&gt;&lt;/span&gt;&lt;/div&gt;&lt;div style=&quot;&quot;&gt;&lt;span style=&quot;background-color: initial;&quot;&gt;&lt;b&gt;&lt;br&gt;&lt;/b&gt;&lt;/span&gt;&lt;/div&gt;&lt;div style=&quot;&quot;&gt;&lt;span style=&quot;background-color: initial;&quot;&gt;&lt;b&gt;&lt;br&gt;&lt;/b&gt;&lt;/span&gt;&lt;/div&gt;&lt;div style=&quot;&quot;&gt;&lt;span style=&quot;background-color: initial;&quot;&gt;&lt;b&gt;Notes:&lt;/b&gt;&lt;/span&gt;&lt;/div&gt;&lt;div style=&quot;&quot;&gt;&lt;span style=&quot;background-color: initial;&quot;&gt;&lt;b&gt;&lt;br&gt;&lt;/b&gt;&lt;/span&gt;&lt;/div&gt;&lt;div style=&quot;&quot;&gt;&lt;span style=&quot;background-color: initial;&quot;&gt;&lt;b&gt;&lt;br&gt;&lt;/b&gt;&lt;/span&gt;&lt;/div&gt;&lt;div style=&quot;&quot;&gt;&lt;span style=&quot;background-color: initial;&quot;&gt;&lt;b&gt;&lt;br&gt;&lt;/b&gt;&lt;/span&gt;&lt;/div&gt;" style="rounded=0;whiteSpace=wrap;html=1;align=left;fillColor=#dae8fc;strokeColor=#6c8ebf;strokeWidth=3;" vertex="1" parent="1">
          <mxGeometry x="4700" y="250" width="390" height="280" as="geometry" />
        </mxCell>
        <mxCell id="im6uKeQKjoMlU5U68ikK-165" value="&lt;p style=&quot;line-height: 120%;&quot;&gt;&lt;b&gt;Media:&amp;nbsp;&lt;br&gt;&lt;br&gt;Media description:&lt;br&gt;&lt;br&gt;Media resources:&lt;br&gt;&lt;br&gt;&lt;br&gt;Task:&lt;br&gt;&lt;br&gt;Task description:&lt;br&gt;&lt;br&gt;&lt;br&gt;Task resources:&lt;br&gt;&lt;br&gt;&lt;br&gt;Training:&amp;nbsp;&lt;br&gt;&lt;br&gt;Training description:&lt;br&gt;&lt;br&gt;&lt;br&gt;Training resources:&lt;br&gt;&lt;br&gt;&lt;/b&gt;&lt;/p&gt;" style="rounded=0;whiteSpace=wrap;html=1;align=left;fillColor=#dae8fc;strokeColor=#6c8ebf;" vertex="1" parent="1">
          <mxGeometry x="4760" y="190" width="390" height="400" as="geometry" />
        </mxCell>
        <mxCell id="im6uKeQKjoMlU5U68ikK-166" value="&lt;b&gt;Information:&amp;nbsp;&lt;/b&gt;&lt;br&gt;&lt;br&gt;&lt;b&gt;Trigger:&lt;/b&gt;&lt;br&gt;&lt;br&gt;&lt;br&gt;&lt;b&gt;Task:&lt;/b&gt;&lt;br&gt;&lt;br&gt;&lt;br&gt;&lt;b&gt;Test/Check:&lt;/b&gt;&lt;br&gt;&lt;br&gt;&lt;br&gt;&lt;div style=&quot;&quot;&gt;&lt;span style=&quot;background-color: initial;&quot;&gt;&lt;b&gt;Training:&lt;/b&gt;&lt;/span&gt;&lt;/div&gt;&lt;div style=&quot;&quot;&gt;&lt;span style=&quot;background-color: initial;&quot;&gt;&lt;b&gt;&lt;br&gt;&lt;/b&gt;&lt;/span&gt;&lt;/div&gt;&lt;div style=&quot;&quot;&gt;&lt;span style=&quot;background-color: initial;&quot;&gt;&lt;b&gt;&lt;br&gt;&lt;/b&gt;&lt;/span&gt;&lt;/div&gt;&lt;div style=&quot;&quot;&gt;&lt;span style=&quot;background-color: initial;&quot;&gt;&lt;b&gt;Notes:&lt;/b&gt;&lt;/span&gt;&lt;/div&gt;&lt;div style=&quot;&quot;&gt;&lt;span style=&quot;background-color: initial;&quot;&gt;&lt;b&gt;&lt;br&gt;&lt;/b&gt;&lt;/span&gt;&lt;/div&gt;&lt;div style=&quot;&quot;&gt;&lt;span style=&quot;background-color: initial;&quot;&gt;&lt;b&gt;&lt;br&gt;&lt;/b&gt;&lt;/span&gt;&lt;/div&gt;&lt;div style=&quot;&quot;&gt;&lt;span style=&quot;background-color: initial;&quot;&gt;&lt;b&gt;&lt;br&gt;&lt;/b&gt;&lt;/span&gt;&lt;/div&gt;" style="rounded=0;whiteSpace=wrap;html=1;align=left;fillColor=#d5e8d4;strokeColor=#82b366;strokeWidth=2;" vertex="1" parent="1">
          <mxGeometry x="5313" y="250" width="390" height="280" as="geometry" />
        </mxCell>
        <mxCell id="im6uKeQKjoMlU5U68ikK-167" value="&lt;b&gt;Information:&amp;nbsp;&lt;/b&gt;&lt;br&gt;&lt;br&gt;&lt;b&gt;Trigger:&lt;/b&gt;&lt;br&gt;&lt;br&gt;&lt;br&gt;&lt;b&gt;Task:&lt;/b&gt;&lt;br&gt;&lt;br&gt;&lt;br&gt;&lt;b&gt;Test/Check:&lt;/b&gt;&lt;br&gt;&lt;br&gt;&lt;br&gt;&lt;div style=&quot;&quot;&gt;&lt;span style=&quot;background-color: initial;&quot;&gt;&lt;b&gt;Training:&lt;/b&gt;&lt;/span&gt;&lt;/div&gt;&lt;div style=&quot;&quot;&gt;&lt;span style=&quot;background-color: initial;&quot;&gt;&lt;b&gt;&lt;br&gt;&lt;/b&gt;&lt;/span&gt;&lt;/div&gt;&lt;div style=&quot;&quot;&gt;&lt;span style=&quot;background-color: initial;&quot;&gt;&lt;b&gt;&lt;br&gt;&lt;/b&gt;&lt;/span&gt;&lt;/div&gt;&lt;div style=&quot;&quot;&gt;&lt;span style=&quot;background-color: initial;&quot;&gt;&lt;b&gt;Notes:&lt;/b&gt;&lt;/span&gt;&lt;/div&gt;&lt;div style=&quot;&quot;&gt;&lt;span style=&quot;background-color: initial;&quot;&gt;&lt;b&gt;&lt;br&gt;&lt;/b&gt;&lt;/span&gt;&lt;/div&gt;&lt;div style=&quot;&quot;&gt;&lt;span style=&quot;background-color: initial;&quot;&gt;&lt;b&gt;&lt;br&gt;&lt;/b&gt;&lt;/span&gt;&lt;/div&gt;&lt;div style=&quot;&quot;&gt;&lt;span style=&quot;background-color: initial;&quot;&gt;&lt;b&gt;&lt;br&gt;&lt;/b&gt;&lt;/span&gt;&lt;/div&gt;" style="rounded=0;whiteSpace=wrap;html=1;align=left;fillColor=#f8cecc;strokeColor=#b85450;strokeWidth=3;" vertex="1" parent="1">
          <mxGeometry x="5933" y="250" width="390" height="280" as="geometry" />
        </mxCell>
        <mxCell id="im6uKeQKjoMlU5U68ikK-168" value="&lt;p style=&quot;line-height: 120%;&quot;&gt;&lt;b&gt;Media:&amp;nbsp;&lt;br&gt;&lt;br&gt;Media description:&lt;br&gt;&lt;br&gt;Media resources:&lt;br&gt;&lt;br&gt;&lt;br&gt;Task:&lt;br&gt;&lt;br&gt;Task description:&lt;br&gt;&lt;br&gt;&lt;br&gt;Task resources:&lt;br&gt;&lt;br&gt;&lt;br&gt;Training:&amp;nbsp;&lt;br&gt;&lt;br&gt;Training description:&lt;br&gt;&lt;br&gt;&lt;br&gt;Training resources:&lt;br&gt;&lt;br&gt;&lt;/b&gt;&lt;/p&gt;" style="rounded=0;whiteSpace=wrap;html=1;align=left;fillColor=#f8cecc;strokeColor=#b85450;" vertex="1" parent="1">
          <mxGeometry x="5986" y="190" width="390" height="400" as="geometry" />
        </mxCell>
        <mxCell id="im6uKeQKjoMlU5U68ikK-169" value="&lt;p style=&quot;line-height: 120%;&quot;&gt;&lt;b&gt;Media:&amp;nbsp;&lt;br&gt;&lt;br&gt;Media description:&lt;br&gt;&lt;br&gt;Media resources:&lt;br&gt;&lt;br&gt;&lt;br&gt;Task:&lt;br&gt;&lt;br&gt;Task description:&lt;br&gt;&lt;br&gt;&lt;br&gt;Task resources:&lt;br&gt;&lt;br&gt;&lt;br&gt;Training:&amp;nbsp;&lt;br&gt;&lt;br&gt;Training description:&lt;br&gt;&lt;br&gt;&lt;br&gt;Training resources:&lt;br&gt;&lt;br&gt;&lt;/b&gt;&lt;/p&gt;" style="rounded=0;whiteSpace=wrap;html=1;align=left;fillColor=#d5e8d4;strokeColor=#82b366;" vertex="1" parent="1">
          <mxGeometry x="5375" y="190" width="390" height="400" as="geometry" />
        </mxCell>
        <mxCell id="im6uKeQKjoMlU5U68ikK-170" value="&lt;b&gt;Information:&amp;nbsp;&lt;/b&gt;&lt;br&gt;&lt;br&gt;&lt;b&gt;Trigger:&lt;/b&gt;&lt;br&gt;&lt;br&gt;&lt;br&gt;&lt;b&gt;Task:&lt;/b&gt;&lt;br&gt;&lt;br&gt;&lt;br&gt;&lt;b&gt;Test/Check:&lt;/b&gt;&lt;br&gt;&lt;br&gt;&lt;br&gt;&lt;div style=&quot;&quot;&gt;&lt;span style=&quot;background-color: initial;&quot;&gt;&lt;b&gt;Training:&lt;/b&gt;&lt;/span&gt;&lt;/div&gt;&lt;div style=&quot;&quot;&gt;&lt;span style=&quot;background-color: initial;&quot;&gt;&lt;b&gt;&lt;br&gt;&lt;/b&gt;&lt;/span&gt;&lt;/div&gt;&lt;div style=&quot;&quot;&gt;&lt;span style=&quot;background-color: initial;&quot;&gt;&lt;b&gt;&lt;br&gt;&lt;/b&gt;&lt;/span&gt;&lt;/div&gt;&lt;div style=&quot;&quot;&gt;&lt;span style=&quot;background-color: initial;&quot;&gt;&lt;b&gt;Notes:&lt;/b&gt;&lt;/span&gt;&lt;/div&gt;&lt;div style=&quot;&quot;&gt;&lt;span style=&quot;background-color: initial;&quot;&gt;&lt;b&gt;&lt;br&gt;&lt;/b&gt;&lt;/span&gt;&lt;/div&gt;&lt;div style=&quot;&quot;&gt;&lt;span style=&quot;background-color: initial;&quot;&gt;&lt;b&gt;&lt;br&gt;&lt;/b&gt;&lt;/span&gt;&lt;/div&gt;&lt;div style=&quot;&quot;&gt;&lt;span style=&quot;background-color: initial;&quot;&gt;&lt;b&gt;&lt;br&gt;&lt;/b&gt;&lt;/span&gt;&lt;/div&gt;" style="rounded=0;whiteSpace=wrap;html=1;align=left;fillColor=#dae8fc;strokeColor=#6c8ebf;strokeWidth=3;" vertex="1" parent="1">
          <mxGeometry x="4683.5" y="810" width="390" height="280" as="geometry" />
        </mxCell>
        <mxCell id="im6uKeQKjoMlU5U68ikK-171" value="&lt;p style=&quot;line-height: 120%;&quot;&gt;&lt;b&gt;Media:&amp;nbsp;&lt;br&gt;&lt;br&gt;Media description:&lt;br&gt;&lt;br&gt;Media resources:&lt;br&gt;&lt;br&gt;&lt;br&gt;Task:&lt;br&gt;&lt;br&gt;Task description:&lt;br&gt;&lt;br&gt;&lt;br&gt;Task resources:&lt;br&gt;&lt;br&gt;&lt;br&gt;Training:&amp;nbsp;&lt;br&gt;&lt;br&gt;Training description:&lt;br&gt;&lt;br&gt;&lt;br&gt;Training resources:&lt;br&gt;&lt;br&gt;&lt;/b&gt;&lt;/p&gt;" style="rounded=0;whiteSpace=wrap;html=1;align=left;fillColor=#dae8fc;strokeColor=#6c8ebf;" vertex="1" parent="1">
          <mxGeometry x="4743.5" y="750" width="390" height="400" as="geometry" />
        </mxCell>
        <mxCell id="im6uKeQKjoMlU5U68ikK-172" value="&lt;b&gt;Information:&amp;nbsp;&lt;/b&gt;&lt;br&gt;&lt;br&gt;&lt;b&gt;Trigger:&lt;/b&gt;&lt;br&gt;&lt;br&gt;&lt;br&gt;&lt;b&gt;Task:&lt;/b&gt;&lt;br&gt;&lt;br&gt;&lt;br&gt;&lt;b&gt;Test/Check:&lt;/b&gt;&lt;br&gt;&lt;br&gt;&lt;br&gt;&lt;div style=&quot;&quot;&gt;&lt;span style=&quot;background-color: initial;&quot;&gt;&lt;b&gt;Training:&lt;/b&gt;&lt;/span&gt;&lt;/div&gt;&lt;div style=&quot;&quot;&gt;&lt;span style=&quot;background-color: initial;&quot;&gt;&lt;b&gt;&lt;br&gt;&lt;/b&gt;&lt;/span&gt;&lt;/div&gt;&lt;div style=&quot;&quot;&gt;&lt;span style=&quot;background-color: initial;&quot;&gt;&lt;b&gt;&lt;br&gt;&lt;/b&gt;&lt;/span&gt;&lt;/div&gt;&lt;div style=&quot;&quot;&gt;&lt;span style=&quot;background-color: initial;&quot;&gt;&lt;b&gt;Notes:&lt;/b&gt;&lt;/span&gt;&lt;/div&gt;&lt;div style=&quot;&quot;&gt;&lt;span style=&quot;background-color: initial;&quot;&gt;&lt;b&gt;&lt;br&gt;&lt;/b&gt;&lt;/span&gt;&lt;/div&gt;&lt;div style=&quot;&quot;&gt;&lt;span style=&quot;background-color: initial;&quot;&gt;&lt;b&gt;&lt;br&gt;&lt;/b&gt;&lt;/span&gt;&lt;/div&gt;&lt;div style=&quot;&quot;&gt;&lt;span style=&quot;background-color: initial;&quot;&gt;&lt;b&gt;&lt;br&gt;&lt;/b&gt;&lt;/span&gt;&lt;/div&gt;" style="rounded=0;whiteSpace=wrap;html=1;align=left;fillColor=#d5e8d4;strokeColor=#82b366;strokeWidth=2;" vertex="1" parent="1">
          <mxGeometry x="5296.5" y="810" width="390" height="280" as="geometry" />
        </mxCell>
        <mxCell id="im6uKeQKjoMlU5U68ikK-173" value="&lt;b&gt;Information:&amp;nbsp;&lt;/b&gt;&lt;br&gt;&lt;br&gt;&lt;b&gt;Trigger:&lt;/b&gt;&lt;br&gt;&lt;br&gt;&lt;br&gt;&lt;b&gt;Task:&lt;/b&gt;&lt;br&gt;&lt;br&gt;&lt;br&gt;&lt;b&gt;Test/Check:&lt;/b&gt;&lt;br&gt;&lt;br&gt;&lt;br&gt;&lt;div style=&quot;&quot;&gt;&lt;span style=&quot;background-color: initial;&quot;&gt;&lt;b&gt;Training:&lt;/b&gt;&lt;/span&gt;&lt;/div&gt;&lt;div style=&quot;&quot;&gt;&lt;span style=&quot;background-color: initial;&quot;&gt;&lt;b&gt;&lt;br&gt;&lt;/b&gt;&lt;/span&gt;&lt;/div&gt;&lt;div style=&quot;&quot;&gt;&lt;span style=&quot;background-color: initial;&quot;&gt;&lt;b&gt;&lt;br&gt;&lt;/b&gt;&lt;/span&gt;&lt;/div&gt;&lt;div style=&quot;&quot;&gt;&lt;span style=&quot;background-color: initial;&quot;&gt;&lt;b&gt;Notes:&lt;/b&gt;&lt;/span&gt;&lt;/div&gt;&lt;div style=&quot;&quot;&gt;&lt;span style=&quot;background-color: initial;&quot;&gt;&lt;b&gt;&lt;br&gt;&lt;/b&gt;&lt;/span&gt;&lt;/div&gt;&lt;div style=&quot;&quot;&gt;&lt;span style=&quot;background-color: initial;&quot;&gt;&lt;b&gt;&lt;br&gt;&lt;/b&gt;&lt;/span&gt;&lt;/div&gt;&lt;div style=&quot;&quot;&gt;&lt;span style=&quot;background-color: initial;&quot;&gt;&lt;b&gt;&lt;br&gt;&lt;/b&gt;&lt;/span&gt;&lt;/div&gt;" style="rounded=0;whiteSpace=wrap;html=1;align=left;fillColor=#f8cecc;strokeColor=#b85450;strokeWidth=3;" vertex="1" parent="1">
          <mxGeometry x="5916.5" y="810" width="390" height="280" as="geometry" />
        </mxCell>
        <mxCell id="im6uKeQKjoMlU5U68ikK-174" value="&lt;p style=&quot;line-height: 120%;&quot;&gt;&lt;b&gt;Media:&amp;nbsp;&lt;br&gt;&lt;br&gt;Media description:&lt;br&gt;&lt;br&gt;Media resources:&lt;br&gt;&lt;br&gt;&lt;br&gt;Task:&lt;br&gt;&lt;br&gt;Task description:&lt;br&gt;&lt;br&gt;&lt;br&gt;Task resources:&lt;br&gt;&lt;br&gt;&lt;br&gt;Training:&amp;nbsp;&lt;br&gt;&lt;br&gt;Training description:&lt;br&gt;&lt;br&gt;&lt;br&gt;Training resources:&lt;br&gt;&lt;br&gt;&lt;/b&gt;&lt;/p&gt;" style="rounded=0;whiteSpace=wrap;html=1;align=left;fillColor=#f8cecc;strokeColor=#b85450;" vertex="1" parent="1">
          <mxGeometry x="5969.5" y="750" width="390" height="400" as="geometry" />
        </mxCell>
        <mxCell id="im6uKeQKjoMlU5U68ikK-175" value="&lt;p style=&quot;line-height: 120%;&quot;&gt;&lt;b&gt;Media:&amp;nbsp;&lt;br&gt;&lt;br&gt;Media description:&lt;br&gt;&lt;br&gt;Media resources:&lt;br&gt;&lt;br&gt;&lt;br&gt;Task:&lt;br&gt;&lt;br&gt;Task description:&lt;br&gt;&lt;br&gt;&lt;br&gt;Task resources:&lt;br&gt;&lt;br&gt;&lt;br&gt;Training:&amp;nbsp;&lt;br&gt;&lt;br&gt;Training description:&lt;br&gt;&lt;br&gt;&lt;br&gt;Training resources:&lt;br&gt;&lt;br&gt;&lt;/b&gt;&lt;/p&gt;" style="rounded=0;whiteSpace=wrap;html=1;align=left;fillColor=#d5e8d4;strokeColor=#82b366;" vertex="1" parent="1">
          <mxGeometry x="5358.5" y="750" width="390" height="400" as="geometry" />
        </mxCell>
        <mxCell id="im6uKeQKjoMlU5U68ikK-176" value="&lt;b&gt;Information:&amp;nbsp;&lt;/b&gt;&lt;br&gt;&lt;br&gt;&lt;b&gt;Trigger:&lt;/b&gt;&lt;br&gt;&lt;br&gt;&lt;br&gt;&lt;b&gt;Task:&lt;/b&gt;&lt;br&gt;&lt;br&gt;&lt;br&gt;&lt;b&gt;Test/Check:&lt;/b&gt;&lt;br&gt;&lt;br&gt;&lt;br&gt;&lt;div style=&quot;&quot;&gt;&lt;span style=&quot;background-color: initial;&quot;&gt;&lt;b&gt;Training:&lt;/b&gt;&lt;/span&gt;&lt;/div&gt;&lt;div style=&quot;&quot;&gt;&lt;span style=&quot;background-color: initial;&quot;&gt;&lt;b&gt;&lt;br&gt;&lt;/b&gt;&lt;/span&gt;&lt;/div&gt;&lt;div style=&quot;&quot;&gt;&lt;span style=&quot;background-color: initial;&quot;&gt;&lt;b&gt;&lt;br&gt;&lt;/b&gt;&lt;/span&gt;&lt;/div&gt;&lt;div style=&quot;&quot;&gt;&lt;span style=&quot;background-color: initial;&quot;&gt;&lt;b&gt;Notes:&lt;/b&gt;&lt;/span&gt;&lt;/div&gt;&lt;div style=&quot;&quot;&gt;&lt;span style=&quot;background-color: initial;&quot;&gt;&lt;b&gt;&lt;br&gt;&lt;/b&gt;&lt;/span&gt;&lt;/div&gt;&lt;div style=&quot;&quot;&gt;&lt;span style=&quot;background-color: initial;&quot;&gt;&lt;b&gt;&lt;br&gt;&lt;/b&gt;&lt;/span&gt;&lt;/div&gt;&lt;div style=&quot;&quot;&gt;&lt;span style=&quot;background-color: initial;&quot;&gt;&lt;b&gt;&lt;br&gt;&lt;/b&gt;&lt;/span&gt;&lt;/div&gt;" style="rounded=0;whiteSpace=wrap;html=1;align=left;fillColor=#dae8fc;strokeColor=#6c8ebf;strokeWidth=3;" vertex="1" parent="1">
          <mxGeometry x="4667" y="1339" width="390" height="280" as="geometry" />
        </mxCell>
        <mxCell id="im6uKeQKjoMlU5U68ikK-177" value="&lt;p style=&quot;line-height: 120%;&quot;&gt;&lt;b&gt;Media:&amp;nbsp;&lt;br&gt;&lt;br&gt;Media description:&lt;br&gt;&lt;br&gt;Media resources:&lt;br&gt;&lt;br&gt;&lt;br&gt;Task:&lt;br&gt;&lt;br&gt;Task description:&lt;br&gt;&lt;br&gt;&lt;br&gt;Task resources:&lt;br&gt;&lt;br&gt;&lt;br&gt;Training:&amp;nbsp;&lt;br&gt;&lt;br&gt;Training description:&lt;br&gt;&lt;br&gt;&lt;br&gt;Training resources:&lt;br&gt;&lt;br&gt;&lt;/b&gt;&lt;/p&gt;" style="rounded=0;whiteSpace=wrap;html=1;align=left;fillColor=#dae8fc;strokeColor=#6c8ebf;" vertex="1" parent="1">
          <mxGeometry x="4727" y="1279" width="390" height="400" as="geometry" />
        </mxCell>
        <mxCell id="im6uKeQKjoMlU5U68ikK-178" value="&lt;b&gt;Information:&amp;nbsp;&lt;/b&gt;&lt;br&gt;&lt;br&gt;&lt;b&gt;Trigger:&lt;/b&gt;&lt;br&gt;&lt;br&gt;&lt;br&gt;&lt;b&gt;Task:&lt;/b&gt;&lt;br&gt;&lt;br&gt;&lt;br&gt;&lt;b&gt;Test/Check:&lt;/b&gt;&lt;br&gt;&lt;br&gt;&lt;br&gt;&lt;div style=&quot;&quot;&gt;&lt;span style=&quot;background-color: initial;&quot;&gt;&lt;b&gt;Training:&lt;/b&gt;&lt;/span&gt;&lt;/div&gt;&lt;div style=&quot;&quot;&gt;&lt;span style=&quot;background-color: initial;&quot;&gt;&lt;b&gt;&lt;br&gt;&lt;/b&gt;&lt;/span&gt;&lt;/div&gt;&lt;div style=&quot;&quot;&gt;&lt;span style=&quot;background-color: initial;&quot;&gt;&lt;b&gt;&lt;br&gt;&lt;/b&gt;&lt;/span&gt;&lt;/div&gt;&lt;div style=&quot;&quot;&gt;&lt;span style=&quot;background-color: initial;&quot;&gt;&lt;b&gt;Notes:&lt;/b&gt;&lt;/span&gt;&lt;/div&gt;&lt;div style=&quot;&quot;&gt;&lt;span style=&quot;background-color: initial;&quot;&gt;&lt;b&gt;&lt;br&gt;&lt;/b&gt;&lt;/span&gt;&lt;/div&gt;&lt;div style=&quot;&quot;&gt;&lt;span style=&quot;background-color: initial;&quot;&gt;&lt;b&gt;&lt;br&gt;&lt;/b&gt;&lt;/span&gt;&lt;/div&gt;&lt;div style=&quot;&quot;&gt;&lt;span style=&quot;background-color: initial;&quot;&gt;&lt;b&gt;&lt;br&gt;&lt;/b&gt;&lt;/span&gt;&lt;/div&gt;" style="rounded=0;whiteSpace=wrap;html=1;align=left;fillColor=#d5e8d4;strokeColor=#82b366;strokeWidth=2;" vertex="1" parent="1">
          <mxGeometry x="5280" y="1339" width="390" height="280" as="geometry" />
        </mxCell>
        <mxCell id="im6uKeQKjoMlU5U68ikK-179" value="&lt;b&gt;Information:&amp;nbsp;&lt;/b&gt;&lt;br&gt;&lt;br&gt;&lt;b&gt;Trigger:&lt;/b&gt;&lt;br&gt;&lt;br&gt;&lt;br&gt;&lt;b&gt;Task:&lt;/b&gt;&lt;br&gt;&lt;br&gt;&lt;br&gt;&lt;b&gt;Test/Check:&lt;/b&gt;&lt;br&gt;&lt;br&gt;&lt;br&gt;&lt;div style=&quot;&quot;&gt;&lt;span style=&quot;background-color: initial;&quot;&gt;&lt;b&gt;Training:&lt;/b&gt;&lt;/span&gt;&lt;/div&gt;&lt;div style=&quot;&quot;&gt;&lt;span style=&quot;background-color: initial;&quot;&gt;&lt;b&gt;&lt;br&gt;&lt;/b&gt;&lt;/span&gt;&lt;/div&gt;&lt;div style=&quot;&quot;&gt;&lt;span style=&quot;background-color: initial;&quot;&gt;&lt;b&gt;&lt;br&gt;&lt;/b&gt;&lt;/span&gt;&lt;/div&gt;&lt;div style=&quot;&quot;&gt;&lt;span style=&quot;background-color: initial;&quot;&gt;&lt;b&gt;Notes:&lt;/b&gt;&lt;/span&gt;&lt;/div&gt;&lt;div style=&quot;&quot;&gt;&lt;span style=&quot;background-color: initial;&quot;&gt;&lt;b&gt;&lt;br&gt;&lt;/b&gt;&lt;/span&gt;&lt;/div&gt;&lt;div style=&quot;&quot;&gt;&lt;span style=&quot;background-color: initial;&quot;&gt;&lt;b&gt;&lt;br&gt;&lt;/b&gt;&lt;/span&gt;&lt;/div&gt;&lt;div style=&quot;&quot;&gt;&lt;span style=&quot;background-color: initial;&quot;&gt;&lt;b&gt;&lt;br&gt;&lt;/b&gt;&lt;/span&gt;&lt;/div&gt;" style="rounded=0;whiteSpace=wrap;html=1;align=left;fillColor=#f8cecc;strokeColor=#b85450;strokeWidth=3;" vertex="1" parent="1">
          <mxGeometry x="5900" y="1339" width="390" height="280" as="geometry" />
        </mxCell>
        <mxCell id="im6uKeQKjoMlU5U68ikK-180" value="&lt;p style=&quot;line-height: 120%;&quot;&gt;&lt;b&gt;Media:&amp;nbsp;&lt;br&gt;&lt;br&gt;Media description:&lt;br&gt;&lt;br&gt;Media resources:&lt;br&gt;&lt;br&gt;&lt;br&gt;Task:&lt;br&gt;&lt;br&gt;Task description:&lt;br&gt;&lt;br&gt;&lt;br&gt;Task resources:&lt;br&gt;&lt;br&gt;&lt;br&gt;Training:&amp;nbsp;&lt;br&gt;&lt;br&gt;Training description:&lt;br&gt;&lt;br&gt;&lt;br&gt;Training resources:&lt;br&gt;&lt;br&gt;&lt;/b&gt;&lt;/p&gt;" style="rounded=0;whiteSpace=wrap;html=1;align=left;fillColor=#f8cecc;strokeColor=#b85450;" vertex="1" parent="1">
          <mxGeometry x="5953" y="1279" width="390" height="400" as="geometry" />
        </mxCell>
        <mxCell id="im6uKeQKjoMlU5U68ikK-181" value="&lt;p style=&quot;line-height: 120%;&quot;&gt;&lt;b&gt;Media:&amp;nbsp;&lt;br&gt;&lt;br&gt;Media description:&lt;br&gt;&lt;br&gt;Media resources:&lt;br&gt;&lt;br&gt;&lt;br&gt;Task:&lt;br&gt;&lt;br&gt;Task description:&lt;br&gt;&lt;br&gt;&lt;br&gt;Task resources:&lt;br&gt;&lt;br&gt;&lt;br&gt;Training:&amp;nbsp;&lt;br&gt;&lt;br&gt;Training description:&lt;br&gt;&lt;br&gt;&lt;br&gt;Training resources:&lt;br&gt;&lt;br&gt;&lt;/b&gt;&lt;/p&gt;" style="rounded=0;whiteSpace=wrap;html=1;align=left;fillColor=#d5e8d4;strokeColor=#82b366;" vertex="1" parent="1">
          <mxGeometry x="5342" y="1279" width="390" height="400" as="geometry" />
        </mxCell>
        <mxCell id="im6uKeQKjoMlU5U68ikK-182" value="&lt;b&gt;Information:&amp;nbsp;&lt;/b&gt;&lt;br&gt;&lt;br&gt;&lt;b&gt;Trigger:&lt;/b&gt;&lt;br&gt;&lt;br&gt;&lt;br&gt;&lt;b&gt;Task:&lt;/b&gt;&lt;br&gt;&lt;br&gt;&lt;br&gt;&lt;b&gt;Test/Check:&lt;/b&gt;&lt;br&gt;&lt;br&gt;&lt;br&gt;&lt;div style=&quot;&quot;&gt;&lt;span style=&quot;background-color: initial;&quot;&gt;&lt;b&gt;Training:&lt;/b&gt;&lt;/span&gt;&lt;/div&gt;&lt;div style=&quot;&quot;&gt;&lt;span style=&quot;background-color: initial;&quot;&gt;&lt;b&gt;&lt;br&gt;&lt;/b&gt;&lt;/span&gt;&lt;/div&gt;&lt;div style=&quot;&quot;&gt;&lt;span style=&quot;background-color: initial;&quot;&gt;&lt;b&gt;&lt;br&gt;&lt;/b&gt;&lt;/span&gt;&lt;/div&gt;&lt;div style=&quot;&quot;&gt;&lt;span style=&quot;background-color: initial;&quot;&gt;&lt;b&gt;Notes:&lt;/b&gt;&lt;/span&gt;&lt;/div&gt;&lt;div style=&quot;&quot;&gt;&lt;span style=&quot;background-color: initial;&quot;&gt;&lt;b&gt;&lt;br&gt;&lt;/b&gt;&lt;/span&gt;&lt;/div&gt;&lt;div style=&quot;&quot;&gt;&lt;span style=&quot;background-color: initial;&quot;&gt;&lt;b&gt;&lt;br&gt;&lt;/b&gt;&lt;/span&gt;&lt;/div&gt;&lt;div style=&quot;&quot;&gt;&lt;span style=&quot;background-color: initial;&quot;&gt;&lt;b&gt;&lt;br&gt;&lt;/b&gt;&lt;/span&gt;&lt;/div&gt;" style="rounded=0;whiteSpace=wrap;html=1;align=left;fillColor=#dae8fc;strokeColor=#6c8ebf;strokeWidth=3;" vertex="1" parent="1">
          <mxGeometry x="4667" y="1921" width="390" height="280" as="geometry" />
        </mxCell>
        <mxCell id="im6uKeQKjoMlU5U68ikK-183" value="&lt;p style=&quot;line-height: 120%;&quot;&gt;&lt;b&gt;Media:&amp;nbsp;&lt;br&gt;&lt;br&gt;Media description:&lt;br&gt;&lt;br&gt;Media resources:&lt;br&gt;&lt;br&gt;&lt;br&gt;Task:&lt;br&gt;&lt;br&gt;Task description:&lt;br&gt;&lt;br&gt;&lt;br&gt;Task resources:&lt;br&gt;&lt;br&gt;&lt;br&gt;Training:&amp;nbsp;&lt;br&gt;&lt;br&gt;Training description:&lt;br&gt;&lt;br&gt;&lt;br&gt;Training resources:&lt;br&gt;&lt;br&gt;&lt;/b&gt;&lt;/p&gt;" style="rounded=0;whiteSpace=wrap;html=1;align=left;fillColor=#dae8fc;strokeColor=#6c8ebf;" vertex="1" parent="1">
          <mxGeometry x="4727" y="1861" width="390" height="400" as="geometry" />
        </mxCell>
        <mxCell id="im6uKeQKjoMlU5U68ikK-184" value="&lt;b&gt;Information:&amp;nbsp;&lt;/b&gt;&lt;br&gt;&lt;br&gt;&lt;b&gt;Trigger:&lt;/b&gt;&lt;br&gt;&lt;br&gt;&lt;br&gt;&lt;b&gt;Task:&lt;/b&gt;&lt;br&gt;&lt;br&gt;&lt;br&gt;&lt;b&gt;Test/Check:&lt;/b&gt;&lt;br&gt;&lt;br&gt;&lt;br&gt;&lt;div style=&quot;&quot;&gt;&lt;span style=&quot;background-color: initial;&quot;&gt;&lt;b&gt;Training:&lt;/b&gt;&lt;/span&gt;&lt;/div&gt;&lt;div style=&quot;&quot;&gt;&lt;span style=&quot;background-color: initial;&quot;&gt;&lt;b&gt;&lt;br&gt;&lt;/b&gt;&lt;/span&gt;&lt;/div&gt;&lt;div style=&quot;&quot;&gt;&lt;span style=&quot;background-color: initial;&quot;&gt;&lt;b&gt;&lt;br&gt;&lt;/b&gt;&lt;/span&gt;&lt;/div&gt;&lt;div style=&quot;&quot;&gt;&lt;span style=&quot;background-color: initial;&quot;&gt;&lt;b&gt;Notes:&lt;/b&gt;&lt;/span&gt;&lt;/div&gt;&lt;div style=&quot;&quot;&gt;&lt;span style=&quot;background-color: initial;&quot;&gt;&lt;b&gt;&lt;br&gt;&lt;/b&gt;&lt;/span&gt;&lt;/div&gt;&lt;div style=&quot;&quot;&gt;&lt;span style=&quot;background-color: initial;&quot;&gt;&lt;b&gt;&lt;br&gt;&lt;/b&gt;&lt;/span&gt;&lt;/div&gt;&lt;div style=&quot;&quot;&gt;&lt;span style=&quot;background-color: initial;&quot;&gt;&lt;b&gt;&lt;br&gt;&lt;/b&gt;&lt;/span&gt;&lt;/div&gt;" style="rounded=0;whiteSpace=wrap;html=1;align=left;fillColor=#d5e8d4;strokeColor=#82b366;strokeWidth=2;" vertex="1" parent="1">
          <mxGeometry x="5280" y="1921" width="390" height="280" as="geometry" />
        </mxCell>
        <mxCell id="im6uKeQKjoMlU5U68ikK-185" value="&lt;b&gt;Information:&amp;nbsp;&lt;/b&gt;&lt;br&gt;&lt;br&gt;&lt;b&gt;Trigger:&lt;/b&gt;&lt;br&gt;&lt;br&gt;&lt;br&gt;&lt;b&gt;Task:&lt;/b&gt;&lt;br&gt;&lt;br&gt;&lt;br&gt;&lt;b&gt;Test/Check:&lt;/b&gt;&lt;br&gt;&lt;br&gt;&lt;br&gt;&lt;div style=&quot;&quot;&gt;&lt;span style=&quot;background-color: initial;&quot;&gt;&lt;b&gt;Training:&lt;/b&gt;&lt;/span&gt;&lt;/div&gt;&lt;div style=&quot;&quot;&gt;&lt;span style=&quot;background-color: initial;&quot;&gt;&lt;b&gt;&lt;br&gt;&lt;/b&gt;&lt;/span&gt;&lt;/div&gt;&lt;div style=&quot;&quot;&gt;&lt;span style=&quot;background-color: initial;&quot;&gt;&lt;b&gt;&lt;br&gt;&lt;/b&gt;&lt;/span&gt;&lt;/div&gt;&lt;div style=&quot;&quot;&gt;&lt;span style=&quot;background-color: initial;&quot;&gt;&lt;b&gt;Notes:&lt;/b&gt;&lt;/span&gt;&lt;/div&gt;&lt;div style=&quot;&quot;&gt;&lt;span style=&quot;background-color: initial;&quot;&gt;&lt;b&gt;&lt;br&gt;&lt;/b&gt;&lt;/span&gt;&lt;/div&gt;&lt;div style=&quot;&quot;&gt;&lt;span style=&quot;background-color: initial;&quot;&gt;&lt;b&gt;&lt;br&gt;&lt;/b&gt;&lt;/span&gt;&lt;/div&gt;&lt;div style=&quot;&quot;&gt;&lt;span style=&quot;background-color: initial;&quot;&gt;&lt;b&gt;&lt;br&gt;&lt;/b&gt;&lt;/span&gt;&lt;/div&gt;" style="rounded=0;whiteSpace=wrap;html=1;align=left;fillColor=#f8cecc;strokeColor=#b85450;strokeWidth=3;" vertex="1" parent="1">
          <mxGeometry x="5900" y="1921" width="390" height="280" as="geometry" />
        </mxCell>
        <mxCell id="im6uKeQKjoMlU5U68ikK-186" value="&lt;p style=&quot;line-height: 120%;&quot;&gt;&lt;b&gt;Media:&amp;nbsp;&lt;br&gt;&lt;br&gt;Media description:&lt;br&gt;&lt;br&gt;Media resources:&lt;br&gt;&lt;br&gt;&lt;br&gt;Task:&lt;br&gt;&lt;br&gt;Task description:&lt;br&gt;&lt;br&gt;&lt;br&gt;Task resources:&lt;br&gt;&lt;br&gt;&lt;br&gt;Training:&amp;nbsp;&lt;br&gt;&lt;br&gt;Training description:&lt;br&gt;&lt;br&gt;&lt;br&gt;Training resources:&lt;br&gt;&lt;br&gt;&lt;/b&gt;&lt;/p&gt;" style="rounded=0;whiteSpace=wrap;html=1;align=left;fillColor=#f8cecc;strokeColor=#b85450;" vertex="1" parent="1">
          <mxGeometry x="5953" y="1861" width="390" height="400" as="geometry" />
        </mxCell>
        <mxCell id="im6uKeQKjoMlU5U68ikK-187" value="&lt;p style=&quot;line-height: 120%;&quot;&gt;&lt;b&gt;Media:&amp;nbsp;&lt;br&gt;&lt;br&gt;Media description:&lt;br&gt;&lt;br&gt;Media resources:&lt;br&gt;&lt;br&gt;&lt;br&gt;Task:&lt;br&gt;&lt;br&gt;Task description:&lt;br&gt;&lt;br&gt;&lt;br&gt;Task resources:&lt;br&gt;&lt;br&gt;&lt;br&gt;Training:&amp;nbsp;&lt;br&gt;&lt;br&gt;Training description:&lt;br&gt;&lt;br&gt;&lt;br&gt;Training resources:&lt;br&gt;&lt;br&gt;&lt;/b&gt;&lt;/p&gt;" style="rounded=0;whiteSpace=wrap;html=1;align=left;fillColor=#d5e8d4;strokeColor=#82b366;" vertex="1" parent="1">
          <mxGeometry x="5342" y="1861" width="390" height="400" as="geometry" />
        </mxCell>
        <mxCell id="im6uKeQKjoMlU5U68ikK-188" value="&lt;span style=&quot;font-size: 14px;&quot;&gt;&lt;b&gt;Event 5&lt;/b&gt;&lt;/span&gt;" style="rounded=0;whiteSpace=wrap;html=1;fillColor=#e1d5e7;strokeColor=#9673a6;" vertex="1" parent="1">
          <mxGeometry x="4440" y="2020" width="120" height="60" as="geometry" />
        </mxCell>
        <mxCell id="im6uKeQKjoMlU5U68ikK-189" value="&lt;b style=&quot;&quot;&gt;&lt;font style=&quot;font-size: 83px;&quot;&gt;Spare cards&lt;/font&gt;&lt;/b&gt;" style="rounded=0;whiteSpace=wrap;html=1;" vertex="1" parent="1">
          <mxGeometry x="4710" y="-1020" width="770" height="60" as="geometry" />
        </mxCell>
      </root>
    </mxGraphModel>
  </diagram>
</mxfile>
